<mxfile host="app.diagrams.net" modified="2021-11-13T15:23:07.111Z" agent="5.0 (Windows)" etag="1uWNPSZzI19SiU797_HX" version="15.4.1" type="github">
  <diagram id="vhliZv-0oFF0x9eHAfwW" name="Page-1">
    <mxGraphModel dx="4812" dy="1800" grid="1" gridSize="10" guides="1" tooltips="1" connect="1" arrows="1" fold="1" page="1" pageScale="1" pageWidth="827" pageHeight="1169" math="0" shadow="0">
      <root>
        <mxCell id="0" />
        <mxCell id="1" parent="0" />
        <mxCell id="uNSG5E5gWwTWy8iNkXtj-1" value="Пользователь" style="html=1;dashed=0;whitespace=wrap;" parent="1" vertex="1">
          <mxGeometry x="50" y="220" width="100" height="50" as="geometry" />
        </mxCell>
        <mxCell id="uNSG5E5gWwTWy8iNkXtj-2" value="Система управления &quot;умным&quot; углем" style="rounded=1;whiteSpace=wrap;html=1;" parent="1" vertex="1">
          <mxGeometry x="330" y="182.5" width="210" height="125" as="geometry" />
        </mxCell>
        <mxCell id="uNSG5E5gWwTWy8iNkXtj-3" value="" style="endArrow=classic;html=1;rounded=0;edgeStyle=orthogonalEdgeStyle;exitX=0.5;exitY=0;exitDx=0;exitDy=0;" parent="1" source="uNSG5E5gWwTWy8iNkXtj-1" edge="1">
          <mxGeometry width="50" height="50" relative="1" as="geometry">
            <mxPoint x="210" y="150" as="sourcePoint" />
            <mxPoint x="510" y="183" as="targetPoint" />
            <Array as="points">
              <mxPoint x="80" y="220" />
              <mxPoint x="80" y="110" />
              <mxPoint x="510" y="110" />
              <mxPoint x="510" y="183" />
            </Array>
          </mxGeometry>
        </mxCell>
        <mxCell id="uNSG5E5gWwTWy8iNkXtj-4" value="&lt;div&gt;Запрос на аутентификацию в подсистеме&lt;/div&gt;&lt;div&gt;облачная платформа&lt;br&gt;&lt;/div&gt;" style="edgeLabel;html=1;align=center;verticalAlign=middle;resizable=0;points=[];" parent="uNSG5E5gWwTWy8iNkXtj-3" vertex="1" connectable="0">
          <mxGeometry x="0.028" y="2" relative="1" as="geometry">
            <mxPoint as="offset" />
          </mxGeometry>
        </mxCell>
        <mxCell id="uNSG5E5gWwTWy8iNkXtj-5" value="" style="endArrow=classic;html=1;rounded=0;edgeStyle=orthogonalEdgeStyle;exitX=0.5;exitY=0;exitDx=0;exitDy=0;entryX=0.75;entryY=0;entryDx=0;entryDy=0;" parent="1" source="uNSG5E5gWwTWy8iNkXtj-1" target="uNSG5E5gWwTWy8iNkXtj-2" edge="1">
          <mxGeometry width="50" height="50" relative="1" as="geometry">
            <mxPoint x="180" y="390" as="sourcePoint" />
            <mxPoint x="230" y="340" as="targetPoint" />
            <Array as="points">
              <mxPoint x="100" y="150" />
              <mxPoint x="488" y="150" />
            </Array>
          </mxGeometry>
        </mxCell>
        <mxCell id="uNSG5E5gWwTWy8iNkXtj-6" value="&lt;div&gt;Запрос на управление подсистемой &lt;br&gt;&lt;/div&gt;&lt;div&gt;физическое устройство&lt;br&gt;&lt;/div&gt;" style="edgeLabel;html=1;align=center;verticalAlign=middle;resizable=0;points=[];" parent="uNSG5E5gWwTWy8iNkXtj-5" vertex="1" connectable="0">
          <mxGeometry x="-0.0471" relative="1" as="geometry">
            <mxPoint as="offset" />
          </mxGeometry>
        </mxCell>
        <mxCell id="uNSG5E5gWwTWy8iNkXtj-7" value="" style="endArrow=classic;html=1;rounded=0;edgeStyle=orthogonalEdgeStyle;exitX=0.5;exitY=1;exitDx=0;exitDy=0;entryX=0.75;entryY=1;entryDx=0;entryDy=0;" parent="1" source="uNSG5E5gWwTWy8iNkXtj-2" target="uNSG5E5gWwTWy8iNkXtj-1" edge="1">
          <mxGeometry width="50" height="50" relative="1" as="geometry">
            <mxPoint x="230" y="390" as="sourcePoint" />
            <mxPoint x="280" y="340" as="targetPoint" />
            <Array as="points">
              <mxPoint x="435" y="330" />
              <mxPoint x="125" y="330" />
            </Array>
          </mxGeometry>
        </mxCell>
        <mxCell id="uNSG5E5gWwTWy8iNkXtj-8" value="&lt;div&gt;Данные о авторизации в подсистеме&lt;/div&gt;&lt;div&gt;облачная платформа&lt;br&gt; &lt;/div&gt;" style="edgeLabel;html=1;align=center;verticalAlign=middle;resizable=0;points=[];" parent="uNSG5E5gWwTWy8iNkXtj-7" vertex="1" connectable="0">
          <mxGeometry x="0.0731" y="-3" relative="1" as="geometry">
            <mxPoint as="offset" />
          </mxGeometry>
        </mxCell>
        <mxCell id="uNSG5E5gWwTWy8iNkXtj-9" value="" style="endArrow=classic;html=1;rounded=0;edgeStyle=orthogonalEdgeStyle;entryX=0.25;entryY=1;entryDx=0;entryDy=0;exitX=0.75;exitY=1;exitDx=0;exitDy=0;" parent="1" source="uNSG5E5gWwTWy8iNkXtj-2" target="uNSG5E5gWwTWy8iNkXtj-1" edge="1">
          <mxGeometry width="50" height="50" relative="1" as="geometry">
            <mxPoint x="300" y="430" as="sourcePoint" />
            <mxPoint x="350" y="380" as="targetPoint" />
            <Array as="points">
              <mxPoint x="488" y="370" />
              <mxPoint x="75" y="370" />
            </Array>
          </mxGeometry>
        </mxCell>
        <mxCell id="uNSG5E5gWwTWy8iNkXtj-10" value="&lt;div&gt;Данные о корректности&lt;/div&gt;&lt;div&gt; работы подсистемы&lt;/div&gt;&lt;div&gt;физическое устройство&lt;br&gt;&lt;/div&gt;" style="edgeLabel;html=1;align=center;verticalAlign=middle;resizable=0;points=[];" parent="uNSG5E5gWwTWy8iNkXtj-9" vertex="1" connectable="0">
          <mxGeometry x="-0.1883" y="2" relative="1" as="geometry">
            <mxPoint x="-77" as="offset" />
          </mxGeometry>
        </mxCell>
        <mxCell id="uNSG5E5gWwTWy8iNkXtj-16" value="" style="endArrow=classic;html=1;rounded=0;edgeStyle=orthogonalEdgeStyle;exitX=0.5;exitY=0;exitDx=0;exitDy=0;entryX=0;entryY=0.25;entryDx=0;entryDy=0;" parent="1" source="uNSG5E5gWwTWy8iNkXtj-14" target="uNSG5E5gWwTWy8iNkXtj-25" edge="1">
          <mxGeometry width="50" height="50" relative="1" as="geometry">
            <mxPoint x="210" y="680" as="sourcePoint" />
            <mxPoint x="670" y="670" as="targetPoint" />
            <Array as="points">
              <mxPoint x="200" y="750" />
              <mxPoint x="140" y="750" />
              <mxPoint x="140" y="560" />
              <mxPoint x="430" y="560" />
              <mxPoint x="430" y="555" />
            </Array>
          </mxGeometry>
        </mxCell>
        <mxCell id="uNSG5E5gWwTWy8iNkXtj-17" value="&lt;div&gt;Запрос на аутентификацию в подсистеме&lt;/div&gt;&lt;div&gt;облачная платформа&lt;br&gt;&lt;/div&gt;" style="edgeLabel;html=1;align=center;verticalAlign=middle;resizable=0;points=[];" parent="uNSG5E5gWwTWy8iNkXtj-16" vertex="1" connectable="0">
          <mxGeometry x="0.028" y="2" relative="1" as="geometry">
            <mxPoint x="61" as="offset" />
          </mxGeometry>
        </mxCell>
        <mxCell id="uNSG5E5gWwTWy8iNkXtj-20" value="" style="endArrow=classic;html=1;rounded=0;edgeStyle=orthogonalEdgeStyle;exitX=0;exitY=0.75;exitDx=0;exitDy=0;" parent="1" edge="1">
          <mxGeometry width="50" height="50" relative="1" as="geometry">
            <mxPoint x="350" y="1091.9999999999998" as="sourcePoint" />
            <mxPoint x="170" y="782" as="targetPoint" />
            <Array as="points">
              <mxPoint x="170" y="1092" />
            </Array>
          </mxGeometry>
        </mxCell>
        <mxCell id="uNSG5E5gWwTWy8iNkXtj-21" value="&lt;div&gt;Данные о авторизации &lt;br&gt;&lt;/div&gt;&lt;div&gt;в подсистеме&lt;/div&gt;&lt;div&gt;облачная платформа&lt;br&gt; &lt;/div&gt;" style="edgeLabel;html=1;align=center;verticalAlign=middle;resizable=0;points=[];" parent="uNSG5E5gWwTWy8iNkXtj-20" vertex="1" connectable="0">
          <mxGeometry x="0.0731" y="-3" relative="1" as="geometry">
            <mxPoint x="7" y="13" as="offset" />
          </mxGeometry>
        </mxCell>
        <mxCell id="uNSG5E5gWwTWy8iNkXtj-25" value="Обработка запроса на аутентификацию пользователя" style="rounded=1;whiteSpace=wrap;html=1;" parent="1" vertex="1">
          <mxGeometry x="460" y="540" width="120" height="60" as="geometry" />
        </mxCell>
        <mxCell id="uNSG5E5gWwTWy8iNkXtj-26" value="Шифрование полученных данных" style="rounded=1;whiteSpace=wrap;html=1;" parent="1" vertex="1">
          <mxGeometry x="730" y="690" width="120" height="60" as="geometry" />
        </mxCell>
        <mxCell id="uNSG5E5gWwTWy8iNkXtj-27" value="" style="endArrow=classic;html=1;rounded=0;edgeStyle=orthogonalEdgeStyle;exitX=1;exitY=0.25;exitDx=0;exitDy=0;entryX=0;entryY=0.25;entryDx=0;entryDy=0;" parent="1" source="uNSG5E5gWwTWy8iNkXtj-25" target="uNSG5E5gWwTWy8iNkXtj-26" edge="1">
          <mxGeometry width="50" height="50" relative="1" as="geometry">
            <mxPoint x="710" y="750" as="sourcePoint" />
            <mxPoint x="710" y="635" as="targetPoint" />
            <Array as="points" />
          </mxGeometry>
        </mxCell>
        <mxCell id="uNSG5E5gWwTWy8iNkXtj-28" value="&lt;div&gt;Обработанный&lt;/div&gt;&lt;div&gt;запрос с &lt;br&gt;&lt;/div&gt;&lt;div&gt;пользовательскими&lt;/div&gt;&lt;div&gt;данными&lt;br&gt;&lt;/div&gt;" style="edgeLabel;html=1;align=center;verticalAlign=middle;resizable=0;points=[];" parent="uNSG5E5gWwTWy8iNkXtj-27" vertex="1" connectable="0">
          <mxGeometry x="-0.3231" relative="1" as="geometry">
            <mxPoint x="16" y="41" as="offset" />
          </mxGeometry>
        </mxCell>
        <mxCell id="uNSG5E5gWwTWy8iNkXtj-29" value="Подсистема &quot;Облачная платформа&quot;" style="rounded=1;whiteSpace=wrap;html=1;" parent="1" vertex="1">
          <mxGeometry x="964.29" y="705" width="210" height="140" as="geometry" />
        </mxCell>
        <mxCell id="uNSG5E5gWwTWy8iNkXtj-30" value="" style="endArrow=classic;html=1;rounded=0;edgeStyle=orthogonalEdgeStyle;exitX=1;exitY=0.5;exitDx=0;exitDy=0;" parent="1" source="uNSG5E5gWwTWy8iNkXtj-26" target="uNSG5E5gWwTWy8iNkXtj-29" edge="1">
          <mxGeometry width="50" height="50" relative="1" as="geometry">
            <mxPoint x="890" y="900" as="sourcePoint" />
            <mxPoint x="940" y="850" as="targetPoint" />
            <Array as="points">
              <mxPoint x="850" y="710" />
              <mxPoint x="920" y="710" />
              <mxPoint x="920" y="640" />
              <mxPoint x="1150" y="640" />
            </Array>
          </mxGeometry>
        </mxCell>
        <mxCell id="uNSG5E5gWwTWy8iNkXtj-31" value="&lt;div&gt;Зашифрованные пользовательские &lt;br&gt;&lt;/div&gt;&lt;div&gt;данные&lt;br&gt;&lt;/div&gt;" style="edgeLabel;html=1;align=center;verticalAlign=middle;resizable=0;points=[];" parent="uNSG5E5gWwTWy8iNkXtj-30" vertex="1" connectable="0">
          <mxGeometry x="-0.2744" y="-3" relative="1" as="geometry">
            <mxPoint x="109" y="-3" as="offset" />
          </mxGeometry>
        </mxCell>
        <mxCell id="uNSG5E5gWwTWy8iNkXtj-32" value="&lt;div&gt;Обработка запросов от подсистемы облачнаяплатформа&lt;/div&gt;" style="rounded=1;whiteSpace=wrap;html=1;" parent="1" vertex="1">
          <mxGeometry x="600" y="990" width="170" height="160" as="geometry" />
        </mxCell>
        <mxCell id="uNSG5E5gWwTWy8iNkXtj-33" value="" style="endArrow=classic;html=1;rounded=0;edgeStyle=orthogonalEdgeStyle;exitX=0.75;exitY=1;exitDx=0;exitDy=0;entryX=1;entryY=0.75;entryDx=0;entryDy=0;" parent="1" source="uNSG5E5gWwTWy8iNkXtj-29" target="uNSG5E5gWwTWy8iNkXtj-32" edge="1">
          <mxGeometry width="50" height="50" relative="1" as="geometry">
            <mxPoint x="983.5699999999999" y="949.9999999999998" as="sourcePoint" />
            <mxPoint x="850" y="1130" as="targetPoint" />
            <Array as="points">
              <mxPoint x="1148" y="1110" />
            </Array>
          </mxGeometry>
        </mxCell>
        <mxCell id="uNSG5E5gWwTWy8iNkXtj-34" value="&lt;div&gt;Зашифрованный запрос &lt;br&gt;&lt;/div&gt;&lt;div&gt;на авторизацию подсистемы&lt;/div&gt;&lt;div&gt;пользовательский интерфейс &lt;br&gt;&lt;/div&gt;&lt;div&gt;в&lt;/div&gt;&lt;div&gt;подсистеме облачная платформа &lt;br&gt;&lt;/div&gt;" style="edgeLabel;html=1;align=center;verticalAlign=middle;resizable=0;points=[];" parent="uNSG5E5gWwTWy8iNkXtj-33" vertex="1" connectable="0">
          <mxGeometry x="0.5153" relative="1" as="geometry">
            <mxPoint x="29" as="offset" />
          </mxGeometry>
        </mxCell>
        <mxCell id="uNSG5E5gWwTWy8iNkXtj-35" value="Расшифровка полученных данных" style="rounded=1;whiteSpace=wrap;html=1;" parent="1" vertex="1">
          <mxGeometry x="250" y="990" width="120" height="160" as="geometry" />
        </mxCell>
        <mxCell id="uNSG5E5gWwTWy8iNkXtj-37" value="" style="endArrow=classic;html=1;rounded=0;edgeStyle=orthogonalEdgeStyle;exitX=0;exitY=0.75;exitDx=0;exitDy=0;entryX=1;entryY=0.75;entryDx=0;entryDy=0;" parent="1" source="uNSG5E5gWwTWy8iNkXtj-32" target="uNSG5E5gWwTWy8iNkXtj-35" edge="1">
          <mxGeometry width="50" height="50" relative="1" as="geometry">
            <mxPoint x="515.5699999999999" y="1220" as="sourcePoint" />
            <mxPoint x="565.5699999999999" y="1170" as="targetPoint" />
            <Array as="points">
              <mxPoint x="480" y="1110" />
              <mxPoint x="480" y="1110" />
            </Array>
          </mxGeometry>
        </mxCell>
        <mxCell id="uNSG5E5gWwTWy8iNkXtj-38" value="Обработанный &lt;br&gt;&lt;div&gt;зашифрованный запрос&lt;br&gt;&lt;/div&gt;о авторизации пользователя" style="edgeLabel;html=1;align=center;verticalAlign=middle;resizable=0;points=[];" parent="uNSG5E5gWwTWy8iNkXtj-37" vertex="1" connectable="0">
          <mxGeometry x="0.3171" y="-5" relative="1" as="geometry">
            <mxPoint x="21" y="5" as="offset" />
          </mxGeometry>
        </mxCell>
        <mxCell id="uNSG5E5gWwTWy8iNkXtj-39" value="" style="endArrow=classic;html=1;rounded=0;edgeStyle=orthogonalEdgeStyle;" parent="1" edge="1">
          <mxGeometry width="50" height="50" relative="1" as="geometry">
            <mxPoint x="150" y="750" as="sourcePoint" />
            <mxPoint x="414" y="775" as="targetPoint" />
            <Array as="points">
              <mxPoint x="200" y="750" />
              <mxPoint x="200" y="690" />
              <mxPoint x="354" y="690" />
              <mxPoint x="354" y="775" />
            </Array>
          </mxGeometry>
        </mxCell>
        <mxCell id="uNSG5E5gWwTWy8iNkXtj-40" value="&lt;div&gt;Запрос на управление подсистемой &lt;br&gt;&lt;/div&gt;&lt;div&gt;физическое устройство&lt;br&gt;&lt;/div&gt;" style="edgeLabel;html=1;align=center;verticalAlign=middle;resizable=0;points=[];" parent="uNSG5E5gWwTWy8iNkXtj-39" vertex="1" connectable="0">
          <mxGeometry x="-0.0471" relative="1" as="geometry">
            <mxPoint x="56" as="offset" />
          </mxGeometry>
        </mxCell>
        <mxCell id="uNSG5E5gWwTWy8iNkXtj-41" value="Обработка запроса на управление подсистемой физическое устройство" style="rounded=1;whiteSpace=wrap;html=1;" parent="1" vertex="1">
          <mxGeometry x="414" y="735" width="120" height="80" as="geometry" />
        </mxCell>
        <mxCell id="uNSG5E5gWwTWy8iNkXtj-42" value="" style="endArrow=classic;html=1;rounded=0;edgeStyle=orthogonalEdgeStyle;exitX=1;exitY=0.5;exitDx=0;exitDy=0;entryX=0;entryY=0.75;entryDx=0;entryDy=0;" parent="1" source="uNSG5E5gWwTWy8iNkXtj-41" target="uNSG5E5gWwTWy8iNkXtj-26" edge="1">
          <mxGeometry width="50" height="50" relative="1" as="geometry">
            <mxPoint x="680" y="890" as="sourcePoint" />
            <mxPoint x="730" y="840" as="targetPoint" />
          </mxGeometry>
        </mxCell>
        <mxCell id="uNSG5E5gWwTWy8iNkXtj-46" value="&lt;div&gt;Обработанный &lt;br&gt;&lt;/div&gt;&lt;div&gt;запрос с &lt;br&gt;&lt;/div&gt;&lt;div&gt;командой управления&lt;/div&gt;&lt;div&gt;подсистемой&lt;/div&gt;&lt;div&gt;физическое устройство&lt;br&gt;&lt;/div&gt;" style="edgeLabel;html=1;align=center;verticalAlign=middle;resizable=0;points=[];" parent="uNSG5E5gWwTWy8iNkXtj-42" vertex="1" connectable="0">
          <mxGeometry x="-0.3705" relative="1" as="geometry">
            <mxPoint x="22" as="offset" />
          </mxGeometry>
        </mxCell>
        <mxCell id="uNSG5E5gWwTWy8iNkXtj-44" value="" style="endArrow=classic;html=1;rounded=0;edgeStyle=orthogonalEdgeStyle;exitX=0.5;exitY=1;exitDx=0;exitDy=0;entryX=0;entryY=0.5;entryDx=0;entryDy=0;" parent="1" source="uNSG5E5gWwTWy8iNkXtj-26" target="uNSG5E5gWwTWy8iNkXtj-29" edge="1">
          <mxGeometry width="50" height="50" relative="1" as="geometry">
            <mxPoint x="640" y="940" as="sourcePoint" />
            <mxPoint x="940" y="925" as="targetPoint" />
            <Array as="points">
              <mxPoint x="790" y="860" />
              <mxPoint x="940" y="860" />
              <mxPoint x="940" y="775" />
            </Array>
          </mxGeometry>
        </mxCell>
        <mxCell id="uNSG5E5gWwTWy8iNkXtj-45" value="&lt;div&gt;Зашифрованная пользовательская&lt;/div&gt;&lt;div&gt;команда управления&lt;br&gt;&lt;/div&gt;" style="edgeLabel;html=1;align=center;verticalAlign=middle;resizable=0;points=[];" parent="uNSG5E5gWwTWy8iNkXtj-44" vertex="1" connectable="0">
          <mxGeometry x="-0.2744" y="-3" relative="1" as="geometry">
            <mxPoint x="47" y="-3" as="offset" />
          </mxGeometry>
        </mxCell>
        <mxCell id="uNSG5E5gWwTWy8iNkXtj-47" value="" style="endArrow=classic;html=1;rounded=0;edgeStyle=orthogonalEdgeStyle;exitX=0.5;exitY=1;exitDx=0;exitDy=0;entryX=1;entryY=0.25;entryDx=0;entryDy=0;" parent="1" source="uNSG5E5gWwTWy8iNkXtj-29" target="uNSG5E5gWwTWy8iNkXtj-32" edge="1">
          <mxGeometry width="50" height="50" relative="1" as="geometry">
            <mxPoint x="880" y="990" as="sourcePoint" />
            <mxPoint x="930" y="940" as="targetPoint" />
            <Array as="points">
              <mxPoint x="1095" y="1030" />
            </Array>
          </mxGeometry>
        </mxCell>
        <mxCell id="uNSG5E5gWwTWy8iNkXtj-49" value="&lt;div&gt;Зашифрованный запрос &lt;br&gt;&lt;/div&gt;&lt;div&gt;о корректности работы подсистемы&lt;/div&gt;&lt;div&gt;физическое устройство&lt;br&gt;&lt;/div&gt;" style="edgeLabel;html=1;align=center;verticalAlign=middle;resizable=0;points=[];" parent="uNSG5E5gWwTWy8iNkXtj-47" vertex="1" connectable="0">
          <mxGeometry x="0.3115" relative="1" as="geometry">
            <mxPoint as="offset" />
          </mxGeometry>
        </mxCell>
        <mxCell id="uNSG5E5gWwTWy8iNkXtj-50" value="" style="endArrow=classic;html=1;rounded=0;edgeStyle=orthogonalEdgeStyle;exitX=0;exitY=0.25;exitDx=0;exitDy=0;entryX=1;entryY=0.25;entryDx=0;entryDy=0;" parent="1" source="uNSG5E5gWwTWy8iNkXtj-32" target="uNSG5E5gWwTWy8iNkXtj-35" edge="1">
          <mxGeometry width="50" height="50" relative="1" as="geometry">
            <mxPoint x="410" y="970" as="sourcePoint" />
            <mxPoint x="460" y="920" as="targetPoint" />
          </mxGeometry>
        </mxCell>
        <mxCell id="uNSG5E5gWwTWy8iNkXtj-51" value="&lt;div&gt;Обработанный зашифрованный запрос &lt;br&gt;&lt;/div&gt;&lt;div&gt;о корректности работы подсистемы&lt;/div&gt;&lt;div&gt;физическое устройство&lt;br&gt;&lt;/div&gt;" style="edgeLabel;html=1;align=center;verticalAlign=middle;resizable=0;points=[];" parent="uNSG5E5gWwTWy8iNkXtj-50" vertex="1" connectable="0">
          <mxGeometry x="0.1441" y="-3" relative="1" as="geometry">
            <mxPoint x="21" as="offset" />
          </mxGeometry>
        </mxCell>
        <mxCell id="uNSG5E5gWwTWy8iNkXtj-52" value="" style="endArrow=classic;html=1;rounded=0;edgeStyle=orthogonalEdgeStyle;entryX=0.25;entryY=1;entryDx=0;entryDy=0;exitX=0.5;exitY=0;exitDx=0;exitDy=0;" parent="1" source="uNSG5E5gWwTWy8iNkXtj-35" edge="1">
          <mxGeometry width="50" height="50" relative="1" as="geometry">
            <mxPoint x="410" y="971.9999999999998" as="sourcePoint" />
            <mxPoint x="203.74999999999977" y="782" as="targetPoint" />
            <Array as="points">
              <mxPoint x="310" y="910" />
              <mxPoint x="204" y="910" />
            </Array>
          </mxGeometry>
        </mxCell>
        <mxCell id="uNSG5E5gWwTWy8iNkXtj-53" value="&lt;div&gt;Данные о корректности&lt;/div&gt;&lt;div&gt; работы подсистемы&lt;/div&gt;&lt;div&gt;физическое устройство&lt;br&gt;&lt;/div&gt;" style="edgeLabel;html=1;align=center;verticalAlign=middle;resizable=0;points=[];" parent="uNSG5E5gWwTWy8iNkXtj-52" vertex="1" connectable="0">
          <mxGeometry x="-0.1883" y="2" relative="1" as="geometry">
            <mxPoint as="offset" />
          </mxGeometry>
        </mxCell>
        <mxCell id="uNSG5E5gWwTWy8iNkXtj-54" value="&lt;div&gt;Подсистема физическое устройство&lt;br&gt;&lt;/div&gt;" style="rounded=1;whiteSpace=wrap;html=1;" parent="1" vertex="1">
          <mxGeometry x="1450" y="720" width="210" height="140" as="geometry" />
        </mxCell>
        <mxCell id="uNSG5E5gWwTWy8iNkXtj-55" value="Подсистема &quot;Облачная платформа&quot;" style="rounded=1;whiteSpace=wrap;html=1;" parent="1" vertex="1">
          <mxGeometry x="-250" y="1305" width="210" height="140" as="geometry" />
        </mxCell>
        <mxCell id="uNSG5E5gWwTWy8iNkXtj-56" value="" style="endArrow=classic;html=1;rounded=0;edgeStyle=orthogonalEdgeStyle;exitX=1;exitY=0.5;exitDx=0;exitDy=0;" parent="1" target="uNSG5E5gWwTWy8iNkXtj-55" edge="1">
          <mxGeometry width="50" height="50" relative="1" as="geometry">
            <mxPoint x="-390" y="1319.9999999999998" as="sourcePoint" />
            <mxPoint x="-300" y="1450" as="targetPoint" />
            <Array as="points">
              <mxPoint x="-390" y="1310" />
              <mxPoint x="-320" y="1310" />
              <mxPoint x="-320" y="1240" />
              <mxPoint x="-90" y="1240" />
            </Array>
          </mxGeometry>
        </mxCell>
        <mxCell id="uNSG5E5gWwTWy8iNkXtj-57" value="&lt;div&gt;Зашифрованные пользовательские &lt;br&gt;&lt;/div&gt;&lt;div&gt;данные&lt;br&gt;&lt;/div&gt;" style="edgeLabel;html=1;align=center;verticalAlign=middle;resizable=0;points=[];" parent="uNSG5E5gWwTWy8iNkXtj-56" vertex="1" connectable="0">
          <mxGeometry x="-0.2744" y="-3" relative="1" as="geometry">
            <mxPoint x="109" y="-3" as="offset" />
          </mxGeometry>
        </mxCell>
        <mxCell id="uNSG5E5gWwTWy8iNkXtj-58" value="" style="endArrow=classic;html=1;rounded=0;edgeStyle=orthogonalEdgeStyle;exitX=0.75;exitY=1;exitDx=0;exitDy=0;entryX=1;entryY=0.75;entryDx=0;entryDy=0;" parent="1" source="uNSG5E5gWwTWy8iNkXtj-55" edge="1">
          <mxGeometry width="50" height="50" relative="1" as="geometry">
            <mxPoint x="-256.43000000000006" y="1549.9999999999998" as="sourcePoint" />
            <mxPoint x="-470" y="1709.9999999999998" as="targetPoint" />
            <Array as="points">
              <mxPoint x="-92" y="1710" />
            </Array>
          </mxGeometry>
        </mxCell>
        <mxCell id="uNSG5E5gWwTWy8iNkXtj-59" value="&lt;div&gt;Зашифрованный запрос &lt;br&gt;&lt;/div&gt;&lt;div&gt;на авторизацию подсистемы&lt;/div&gt;&lt;div&gt;пользовательский интерфейс &lt;br&gt;&lt;/div&gt;&lt;div&gt;в&lt;/div&gt;&lt;div&gt;подсистеме облачная платформа &lt;br&gt;&lt;/div&gt;" style="edgeLabel;html=1;align=center;verticalAlign=middle;resizable=0;points=[];" parent="uNSG5E5gWwTWy8iNkXtj-58" vertex="1" connectable="0">
          <mxGeometry x="0.5153" relative="1" as="geometry">
            <mxPoint x="29" as="offset" />
          </mxGeometry>
        </mxCell>
        <mxCell id="uNSG5E5gWwTWy8iNkXtj-60" value="" style="endArrow=classic;html=1;rounded=0;edgeStyle=orthogonalEdgeStyle;exitX=0.5;exitY=1;exitDx=0;exitDy=0;entryX=0;entryY=0.5;entryDx=0;entryDy=0;" parent="1" target="uNSG5E5gWwTWy8iNkXtj-55" edge="1">
          <mxGeometry width="50" height="50" relative="1" as="geometry">
            <mxPoint x="-450" y="1349.9999999999998" as="sourcePoint" />
            <mxPoint x="-300" y="1525" as="targetPoint" />
            <Array as="points">
              <mxPoint x="-450" y="1460" />
              <mxPoint x="-300" y="1460" />
              <mxPoint x="-300" y="1375" />
            </Array>
          </mxGeometry>
        </mxCell>
        <mxCell id="uNSG5E5gWwTWy8iNkXtj-61" value="&lt;div&gt;Зашифрованная пользовательская&lt;/div&gt;&lt;div&gt;команда управления&lt;br&gt;&lt;/div&gt;" style="edgeLabel;html=1;align=center;verticalAlign=middle;resizable=0;points=[];" parent="uNSG5E5gWwTWy8iNkXtj-60" vertex="1" connectable="0">
          <mxGeometry x="-0.2744" y="-3" relative="1" as="geometry">
            <mxPoint x="47" y="-3" as="offset" />
          </mxGeometry>
        </mxCell>
        <mxCell id="uNSG5E5gWwTWy8iNkXtj-62" value="" style="endArrow=classic;html=1;rounded=0;edgeStyle=orthogonalEdgeStyle;exitX=0.5;exitY=1;exitDx=0;exitDy=0;entryX=1;entryY=0.25;entryDx=0;entryDy=0;" parent="1" source="uNSG5E5gWwTWy8iNkXtj-55" edge="1">
          <mxGeometry width="50" height="50" relative="1" as="geometry">
            <mxPoint x="-360" y="1590" as="sourcePoint" />
            <mxPoint x="-470" y="1629.9999999999998" as="targetPoint" />
            <Array as="points">
              <mxPoint x="-145" y="1630" />
            </Array>
          </mxGeometry>
        </mxCell>
        <mxCell id="uNSG5E5gWwTWy8iNkXtj-63" value="&lt;div&gt;Зашифрованный запрос &lt;br&gt;&lt;/div&gt;&lt;div&gt;о корректности работы подсистемы&lt;/div&gt;&lt;div&gt;физическое устройство&lt;br&gt;&lt;/div&gt;" style="edgeLabel;html=1;align=center;verticalAlign=middle;resizable=0;points=[];" parent="uNSG5E5gWwTWy8iNkXtj-62" vertex="1" connectable="0">
          <mxGeometry x="0.3115" relative="1" as="geometry">
            <mxPoint as="offset" />
          </mxGeometry>
        </mxCell>
        <mxCell id="uNSG5E5gWwTWy8iNkXtj-64" value="&lt;div&gt;Обработка данных на авторизацию подсистемы&lt;/div&gt;&lt;div&gt;пользовательский интерфейс&lt;br&gt;&lt;/div&gt;" style="rounded=1;whiteSpace=wrap;html=1;" parent="1" vertex="1">
          <mxGeometry x="270" y="1420" width="170" height="110" as="geometry" />
        </mxCell>
        <mxCell id="uNSG5E5gWwTWy8iNkXtj-65" value="" style="endArrow=classic;html=1;rounded=0;edgeStyle=orthogonalEdgeStyle;" parent="1" edge="1">
          <mxGeometry width="50" height="50" relative="1" as="geometry">
            <mxPoint x="20" y="1460" as="sourcePoint" />
            <mxPoint x="270" y="1460" as="targetPoint" />
            <Array as="points">
              <mxPoint x="80" y="1460" />
              <mxPoint x="270" y="1460" />
            </Array>
          </mxGeometry>
        </mxCell>
        <mxCell id="uNSG5E5gWwTWy8iNkXtj-66" value="&lt;div&gt;Зашифрованные пользовательские &lt;br&gt;&lt;/div&gt;&lt;div&gt;данные&lt;br&gt;&lt;/div&gt;" style="edgeLabel;html=1;align=center;verticalAlign=middle;resizable=0;points=[];" parent="uNSG5E5gWwTWy8iNkXtj-65" vertex="1" connectable="0">
          <mxGeometry x="-0.1594" y="-3" relative="1" as="geometry">
            <mxPoint x="19" y="-3" as="offset" />
          </mxGeometry>
        </mxCell>
        <mxCell id="uNSG5E5gWwTWy8iNkXtj-67" value="Расшифровка полученных данных" style="rounded=1;whiteSpace=wrap;html=1;" parent="1" vertex="1">
          <mxGeometry x="-360" y="1800" width="120" height="160" as="geometry" />
        </mxCell>
        <mxCell id="uNSG5E5gWwTWy8iNkXtj-68" value="" style="endArrow=classic;html=1;rounded=0;edgeStyle=orthogonalEdgeStyle;" parent="1" edge="1">
          <mxGeometry width="50" height="50" relative="1" as="geometry">
            <mxPoint x="-560" y="1850" as="sourcePoint" />
            <mxPoint x="-360" y="1850" as="targetPoint" />
            <Array as="points">
              <mxPoint x="-500" y="1850" />
              <mxPoint x="-310" y="1850" />
            </Array>
          </mxGeometry>
        </mxCell>
        <mxCell id="uNSG5E5gWwTWy8iNkXtj-69" value="&lt;div&gt;Обработанные&lt;/div&gt;&lt;div&gt;зашифрованные &lt;br&gt;&lt;/div&gt;&lt;div&gt;пользовательские &lt;/div&gt;&lt;div&gt;данные&lt;br&gt;&lt;/div&gt;" style="edgeLabel;html=1;align=center;verticalAlign=middle;resizable=0;points=[];" parent="uNSG5E5gWwTWy8iNkXtj-68" vertex="1" connectable="0">
          <mxGeometry x="-0.1594" y="-3" relative="1" as="geometry">
            <mxPoint x="10" y="7" as="offset" />
          </mxGeometry>
        </mxCell>
        <mxCell id="uNSG5E5gWwTWy8iNkXtj-70" value="Обработка пользовательских данных" style="rounded=1;whiteSpace=wrap;html=1;" parent="1" vertex="1">
          <mxGeometry x="-140" y="1800" width="140" height="160" as="geometry" />
        </mxCell>
        <mxCell id="uNSG5E5gWwTWy8iNkXtj-72" value="&lt;div&gt;Зашифрованные данные о &lt;br&gt;&lt;/div&gt;&lt;div&gt;пользовательских интерфейсах&lt;br&gt;&lt;/div&gt;" style="html=1;dashed=0;whitespace=wrap;shape=partialRectangle;right=0;" parent="1" vertex="1">
          <mxGeometry x="255" y="1630" width="200" height="75" as="geometry" />
        </mxCell>
        <mxCell id="uNSG5E5gWwTWy8iNkXtj-76" value="&lt;div&gt;Формирование запроса в зашифрованном виде подсистеме пользовательский интерфейс&lt;/div&gt;" style="rounded=1;whiteSpace=wrap;html=1;" parent="1" vertex="1">
          <mxGeometry x="610" y="1420" width="185" height="110" as="geometry" />
        </mxCell>
        <mxCell id="uNSG5E5gWwTWy8iNkXtj-77" value="" style="endArrow=classic;html=1;rounded=0;edgeStyle=orthogonalEdgeStyle;exitX=1;exitY=0.25;exitDx=0;exitDy=0;entryX=0;entryY=0.25;entryDx=0;entryDy=0;" parent="1" source="uNSG5E5gWwTWy8iNkXtj-64" target="uNSG5E5gWwTWy8iNkXtj-76" edge="1">
          <mxGeometry width="50" height="50" relative="1" as="geometry">
            <mxPoint x="695" y="1680" as="sourcePoint" />
            <mxPoint x="745" y="1630" as="targetPoint" />
          </mxGeometry>
        </mxCell>
        <mxCell id="uNSG5E5gWwTWy8iNkXtj-78" value="&lt;div&gt;Результат&lt;/div&gt;&lt;div&gt;обработанных данных&lt;/div&gt;" style="edgeLabel;html=1;align=center;verticalAlign=middle;resizable=0;points=[];" parent="uNSG5E5gWwTWy8iNkXtj-77" vertex="1" connectable="0">
          <mxGeometry x="-0.2914" relative="1" as="geometry">
            <mxPoint x="18" as="offset" />
          </mxGeometry>
        </mxCell>
        <mxCell id="uNSG5E5gWwTWy8iNkXtj-79" value="" style="endArrow=classic;html=1;rounded=0;edgeStyle=orthogonalEdgeStyle;exitX=1;exitY=0.5;exitDx=0;exitDy=0;" parent="1" edge="1">
          <mxGeometry width="50" height="50" relative="1" as="geometry">
            <mxPoint x="870" y="1260" as="sourcePoint" />
            <mxPoint x="1235" y="1260" as="targetPoint" />
            <Array as="points">
              <mxPoint x="1395" y="1260" />
            </Array>
          </mxGeometry>
        </mxCell>
        <mxCell id="uNSG5E5gWwTWy8iNkXtj-80" value="&lt;div&gt;Зашифрованный запрос &lt;br&gt;&lt;/div&gt;&lt;div&gt;на авторизацию подсистемы&lt;/div&gt;&lt;div&gt;пользовательский интерфейс &lt;br&gt;&lt;/div&gt;&lt;div&gt;в&lt;/div&gt;&lt;div&gt;подсистеме облачная платформа &lt;br&gt;&lt;/div&gt;" style="edgeLabel;html=1;align=center;verticalAlign=middle;resizable=0;points=[];" parent="uNSG5E5gWwTWy8iNkXtj-79" vertex="1" connectable="0">
          <mxGeometry x="0.5153" relative="1" as="geometry">
            <mxPoint x="-264" as="offset" />
          </mxGeometry>
        </mxCell>
        <mxCell id="uNSG5E5gWwTWy8iNkXtj-83" value="&lt;div&gt;Зашифрованные данные&lt;/div&gt;&lt;div&gt;о&lt;/div&gt;&lt;div&gt;командах управления подсистемой&lt;/div&gt;&lt;div&gt;физическое устройство&lt;br&gt;&lt;/div&gt;" style="html=1;dashed=0;whitespace=wrap;shape=partialRectangle;right=0;" parent="1" vertex="1">
          <mxGeometry x="247" y="1920" width="216" height="80" as="geometry" />
        </mxCell>
        <mxCell id="uNSG5E5gWwTWy8iNkXtj-85" value="" style="endArrow=classic;html=1;rounded=0;edgeStyle=orthogonalEdgeStyle;exitX=0.5;exitY=0;exitDx=0;exitDy=0;entryX=0.5;entryY=1;entryDx=0;entryDy=0;" parent="1" source="uNSG5E5gWwTWy8iNkXtj-72" target="uNSG5E5gWwTWy8iNkXtj-64" edge="1">
          <mxGeometry width="50" height="50" relative="1" as="geometry">
            <mxPoint x="640" y="1730" as="sourcePoint" />
            <mxPoint x="690" y="1680" as="targetPoint" />
          </mxGeometry>
        </mxCell>
        <mxCell id="uNSG5E5gWwTWy8iNkXtj-86" value="&lt;div&gt;Обработка данных для управление подсистемой физическое устройство&lt;br&gt;&lt;/div&gt;" style="rounded=1;whiteSpace=wrap;html=1;" parent="1" vertex="1">
          <mxGeometry x="265" y="1770" width="180" height="125" as="geometry" />
        </mxCell>
        <mxCell id="uNSG5E5gWwTWy8iNkXtj-89" value="" style="endArrow=classic;startArrow=classic;html=1;rounded=0;edgeStyle=orthogonalEdgeStyle;entryX=0.5;entryY=0;entryDx=0;entryDy=0;" parent="1" target="uNSG5E5gWwTWy8iNkXtj-86" edge="1">
          <mxGeometry width="50" height="50" relative="1" as="geometry">
            <mxPoint x="1200" y="1445" as="sourcePoint" />
            <mxPoint x="920" y="1675" as="targetPoint" />
            <Array as="points">
              <mxPoint x="920" y="1445" />
              <mxPoint x="920" y="1610" />
              <mxPoint x="683" y="1610" />
              <mxPoint x="683" y="1740" />
              <mxPoint x="355" y="1740" />
            </Array>
          </mxGeometry>
        </mxCell>
        <mxCell id="uNSG5E5gWwTWy8iNkXtj-91" value="" style="endArrow=none;html=1;rounded=0;edgeStyle=orthogonalEdgeStyle;exitX=1;exitY=0.25;exitDx=0;exitDy=0;" parent="1" source="uNSG5E5gWwTWy8iNkXtj-76" edge="1">
          <mxGeometry width="50" height="50" relative="1" as="geometry">
            <mxPoint x="800" y="1450" as="sourcePoint" />
            <mxPoint x="970" y="1450" as="targetPoint" />
          </mxGeometry>
        </mxCell>
        <mxCell id="uNSG5E5gWwTWy8iNkXtj-92" value="&lt;div&gt;Зашифрованный запрос &lt;br&gt;&lt;/div&gt;&lt;div&gt;на авторизацию &lt;br&gt;&lt;/div&gt;&lt;div&gt;подсистемы&lt;/div&gt;&lt;div&gt;пользовательский интерфейс &lt;br&gt;&lt;/div&gt;&lt;div&gt;в&lt;/div&gt;&lt;div&gt;подсистеме облачная платформа &lt;br&gt;&lt;/div&gt;" style="edgeLabel;html=1;align=center;verticalAlign=middle;resizable=0;points=[];" parent="uNSG5E5gWwTWy8iNkXtj-91" vertex="1" connectable="0">
          <mxGeometry x="0.2267" y="1" relative="1" as="geometry">
            <mxPoint x="35" y="11" as="offset" />
          </mxGeometry>
        </mxCell>
        <mxCell id="uNSG5E5gWwTWy8iNkXtj-93" value="" style="endArrow=classic;html=1;rounded=0;edgeStyle=orthogonalEdgeStyle;entryX=-0.002;entryY=0.573;entryDx=0;entryDy=0;entryPerimeter=0;" parent="1" target="uNSG5E5gWwTWy8iNkXtj-86" edge="1">
          <mxGeometry width="50" height="50" relative="1" as="geometry">
            <mxPoint x="40" y="1830" as="sourcePoint" />
            <mxPoint x="900" y="1920" as="targetPoint" />
            <Array as="points">
              <mxPoint x="40" y="1842" />
            </Array>
          </mxGeometry>
        </mxCell>
        <mxCell id="uNSG5E5gWwTWy8iNkXtj-94" value="&lt;div&gt;Зашифрованная пользовательская&lt;/div&gt;&lt;div&gt;команда управления&lt;br&gt;&lt;/div&gt;" style="edgeLabel;html=1;align=center;verticalAlign=middle;resizable=0;points=[];" parent="uNSG5E5gWwTWy8iNkXtj-93" vertex="1" connectable="0">
          <mxGeometry x="-0.7991" y="2" relative="1" as="geometry">
            <mxPoint x="77" y="-7" as="offset" />
          </mxGeometry>
        </mxCell>
        <mxCell id="uNSG5E5gWwTWy8iNkXtj-95" value="" style="endArrow=classic;html=1;rounded=0;edgeStyle=orthogonalEdgeStyle;exitX=0.5;exitY=0;exitDx=0;exitDy=0;entryX=0.5;entryY=1;entryDx=0;entryDy=0;" parent="1" source="uNSG5E5gWwTWy8iNkXtj-83" target="uNSG5E5gWwTWy8iNkXtj-86" edge="1">
          <mxGeometry width="50" height="50" relative="1" as="geometry">
            <mxPoint x="815" y="1880" as="sourcePoint" />
            <mxPoint x="865" y="1830" as="targetPoint" />
          </mxGeometry>
        </mxCell>
        <mxCell id="uNSG5E5gWwTWy8iNkXtj-97" value="&lt;div&gt;Подсистема физическое устройство&lt;br&gt;&lt;/div&gt;" style="rounded=1;whiteSpace=wrap;html=1;" parent="1" vertex="1">
          <mxGeometry x="710" y="1990" width="180" height="125" as="geometry" />
        </mxCell>
        <mxCell id="uNSG5E5gWwTWy8iNkXtj-98" value="" style="endArrow=classic;html=1;rounded=0;edgeStyle=orthogonalEdgeStyle;exitX=1;exitY=0.25;exitDx=0;exitDy=0;entryX=0;entryY=0.25;entryDx=0;entryDy=0;" parent="1" source="uNSG5E5gWwTWy8iNkXtj-86" target="uNSG5E5gWwTWy8iNkXtj-101" edge="1">
          <mxGeometry width="50" height="50" relative="1" as="geometry">
            <mxPoint x="990" y="1780" as="sourcePoint" />
            <mxPoint x="600" y="1860" as="targetPoint" />
          </mxGeometry>
        </mxCell>
        <mxCell id="uNSG5E5gWwTWy8iNkXtj-100" value="&lt;div&gt;Результат обработанных &lt;br&gt;&lt;/div&gt;&lt;div&gt;данных&lt;br&gt;&lt;/div&gt;" style="edgeLabel;html=1;align=center;verticalAlign=middle;resizable=0;points=[];" parent="uNSG5E5gWwTWy8iNkXtj-98" vertex="1" connectable="0">
          <mxGeometry x="-0.2477" y="-3" relative="1" as="geometry">
            <mxPoint x="17" y="-4" as="offset" />
          </mxGeometry>
        </mxCell>
        <mxCell id="uNSG5E5gWwTWy8iNkXtj-101" value="&lt;div&gt;Формирование запроса в зашифрованном виде подсистеме физическое устройство&lt;br&gt;&lt;/div&gt;" style="rounded=1;whiteSpace=wrap;html=1;" parent="1" vertex="1">
          <mxGeometry x="665" y="1777.5" width="185" height="110" as="geometry" />
        </mxCell>
        <mxCell id="uNSG5E5gWwTWy8iNkXtj-102" value="" style="endArrow=classic;html=1;rounded=0;edgeStyle=orthogonalEdgeStyle;entryX=0.25;entryY=0;entryDx=0;entryDy=0;exitX=0.5;exitY=1;exitDx=0;exitDy=0;" parent="1" source="uNSG5E5gWwTWy8iNkXtj-101" target="uNSG5E5gWwTWy8iNkXtj-97" edge="1">
          <mxGeometry width="50" height="50" relative="1" as="geometry">
            <mxPoint x="1008" y="1770" as="sourcePoint" />
            <mxPoint x="1360" y="1810" as="targetPoint" />
          </mxGeometry>
        </mxCell>
        <mxCell id="uNSG5E5gWwTWy8iNkXtj-103" value="&lt;div&gt;Зашифрованные данные &lt;br&gt;&lt;/div&gt;&lt;div&gt;о командах&lt;/div&gt;&lt;div&gt;от подсистемы облачная платформа&lt;br&gt;&lt;/div&gt;" style="edgeLabel;html=1;align=center;verticalAlign=middle;resizable=0;points=[];" parent="uNSG5E5gWwTWy8iNkXtj-102" vertex="1" connectable="0">
          <mxGeometry x="-0.2579" y="-1" relative="1" as="geometry">
            <mxPoint x="1" y="-6" as="offset" />
          </mxGeometry>
        </mxCell>
        <mxCell id="uNSG5E5gWwTWy8iNkXtj-104" value="" style="endArrow=classic;html=1;rounded=0;edgeStyle=orthogonalEdgeStyle;exitX=1;exitY=0.25;exitDx=0;exitDy=0;entryX=0;entryY=0.25;entryDx=0;entryDy=0;" parent="1" source="uNSG5E5gWwTWy8iNkXtj-29" target="uNSG5E5gWwTWy8iNkXtj-54" edge="1">
          <mxGeometry width="50" height="50" relative="1" as="geometry">
            <mxPoint x="1300" y="940" as="sourcePoint" />
            <mxPoint x="1350" y="890" as="targetPoint" />
          </mxGeometry>
        </mxCell>
        <mxCell id="uNSG5E5gWwTWy8iNkXtj-105" value="&lt;div&gt;Зашифрованные данные &lt;br&gt;&lt;/div&gt;&lt;div&gt;о команде&lt;/div&gt;&lt;div&gt;от подсистемы облачная платформа&lt;br&gt;&lt;/div&gt;" style="edgeLabel;html=1;align=center;verticalAlign=middle;resizable=0;points=[];" parent="uNSG5E5gWwTWy8iNkXtj-104" vertex="1" connectable="0">
          <mxGeometry x="-0.2229" y="1" relative="1" as="geometry">
            <mxPoint x="22" y="11" as="offset" />
          </mxGeometry>
        </mxCell>
        <mxCell id="uNSG5E5gWwTWy8iNkXtj-106" value="" style="endArrow=classic;html=1;rounded=0;edgeStyle=orthogonalEdgeStyle;exitX=0;exitY=0.75;exitDx=0;exitDy=0;entryX=1;entryY=0.75;entryDx=0;entryDy=0;" parent="1" source="uNSG5E5gWwTWy8iNkXtj-54" target="uNSG5E5gWwTWy8iNkXtj-29" edge="1">
          <mxGeometry width="50" height="50" relative="1" as="geometry">
            <mxPoint x="1290" y="940" as="sourcePoint" />
            <mxPoint x="1340" y="890" as="targetPoint" />
          </mxGeometry>
        </mxCell>
        <mxCell id="uNSG5E5gWwTWy8iNkXtj-107" value="&lt;div&gt;Зашифрованные данные &lt;br&gt;&lt;/div&gt;&lt;div&gt;о команде&lt;/div&gt;&lt;div&gt;от подсистемы облачная платформа&lt;br&gt;&lt;/div&gt;" style="edgeLabel;html=1;align=center;verticalAlign=middle;resizable=0;points=[];" parent="uNSG5E5gWwTWy8iNkXtj-106" vertex="1" connectable="0">
          <mxGeometry x="0.2481" y="1" relative="1" as="geometry">
            <mxPoint x="25" y="4" as="offset" />
          </mxGeometry>
        </mxCell>
        <mxCell id="uNSG5E5gWwTWy8iNkXtj-108" value="&lt;div&gt;Обработка данных от подсистемы физическое устройство&lt;br&gt;&lt;/div&gt;" style="rounded=1;whiteSpace=wrap;html=1;" parent="1" vertex="1">
          <mxGeometry x="960" y="1762.5" width="180" height="125" as="geometry" />
        </mxCell>
        <mxCell id="uNSG5E5gWwTWy8iNkXtj-109" value="" style="endArrow=classic;html=1;rounded=0;edgeStyle=orthogonalEdgeStyle;exitX=1;exitY=0.5;exitDx=0;exitDy=0;entryX=0;entryY=0.5;entryDx=0;entryDy=0;" parent="1" source="uNSG5E5gWwTWy8iNkXtj-97" target="uNSG5E5gWwTWy8iNkXtj-108" edge="1">
          <mxGeometry width="50" height="50" relative="1" as="geometry">
            <mxPoint x="920" y="1750" as="sourcePoint" />
            <mxPoint x="970" y="1700" as="targetPoint" />
          </mxGeometry>
        </mxCell>
        <mxCell id="uNSG5E5gWwTWy8iNkXtj-115" value="&lt;div&gt;Зашифрованные данные &lt;br&gt;&lt;/div&gt;&lt;div&gt;о выполненных командах подсистемы&lt;br&gt;&lt;/div&gt;&lt;div&gt;физическое устройство&lt;br&gt;&lt;/div&gt;" style="edgeLabel;html=1;align=center;verticalAlign=middle;resizable=0;points=[];" parent="uNSG5E5gWwTWy8iNkXtj-109" vertex="1" connectable="0">
          <mxGeometry x="-0.1215" y="-2" relative="1" as="geometry">
            <mxPoint x="13" y="2" as="offset" />
          </mxGeometry>
        </mxCell>
        <mxCell id="uNSG5E5gWwTWy8iNkXtj-110" value="&lt;div&gt;Зашифрованные данные &lt;br&gt;&lt;/div&gt;&lt;div&gt;о результатах выполнения команд&lt;/div&gt;&lt;div&gt;подсистемой физическое устройство&lt;/div&gt;" style="html=1;dashed=0;whitespace=wrap;shape=partialRectangle;right=0;" parent="1" vertex="1">
          <mxGeometry x="1250" y="1870" width="220" height="73" as="geometry" />
        </mxCell>
        <mxCell id="uNSG5E5gWwTWy8iNkXtj-111" value="&lt;br&gt;&lt;div&gt;Данные о статистике работы &lt;br&gt;&lt;/div&gt;&lt;div&gt;подсистемы&lt;/div&gt;&lt;div&gt;физическое устройство&lt;br&gt;&lt;/div&gt;" style="html=1;dashed=0;whitespace=wrap;shape=partialRectangle;right=0;" parent="1" vertex="1">
          <mxGeometry x="1250" y="1762.5" width="220" height="70" as="geometry" />
        </mxCell>
        <mxCell id="uNSG5E5gWwTWy8iNkXtj-113" value="" style="endArrow=classic;html=1;rounded=0;edgeStyle=orthogonalEdgeStyle;exitX=0;exitY=0.5;exitDx=0;exitDy=0;entryX=1;entryY=0.75;entryDx=0;entryDy=0;" parent="1" source="uNSG5E5gWwTWy8iNkXtj-110" target="uNSG5E5gWwTWy8iNkXtj-108" edge="1">
          <mxGeometry width="50" height="50" relative="1" as="geometry">
            <mxPoint x="1190" y="2010" as="sourcePoint" />
            <mxPoint x="1240" y="1960" as="targetPoint" />
          </mxGeometry>
        </mxCell>
        <mxCell id="uNSG5E5gWwTWy8iNkXtj-114" value="" style="endArrow=classic;html=1;rounded=0;edgeStyle=orthogonalEdgeStyle;exitX=1;exitY=0.5;exitDx=0;exitDy=0;entryX=0;entryY=0.5;entryDx=0;entryDy=0;" parent="1" source="uNSG5E5gWwTWy8iNkXtj-108" target="uNSG5E5gWwTWy8iNkXtj-111" edge="1">
          <mxGeometry width="50" height="50" relative="1" as="geometry">
            <mxPoint x="1280" y="1700" as="sourcePoint" />
            <mxPoint x="1330" y="1650" as="targetPoint" />
          </mxGeometry>
        </mxCell>
        <mxCell id="uNSG5E5gWwTWy8iNkXtj-116" value="&lt;div&gt;Формирование запроса в зашифрованном виде подсистеме пользовательский интерфейс&lt;/div&gt;" style="rounded=1;whiteSpace=wrap;html=1;" parent="1" vertex="1">
          <mxGeometry x="957.5" y="1595" width="185" height="110" as="geometry" />
        </mxCell>
        <mxCell id="uNSG5E5gWwTWy8iNkXtj-117" value="" style="endArrow=classic;html=1;rounded=0;edgeStyle=orthogonalEdgeStyle;exitX=0.5;exitY=0;exitDx=0;exitDy=0;entryX=0.5;entryY=1;entryDx=0;entryDy=0;" parent="1" source="uNSG5E5gWwTWy8iNkXtj-108" target="uNSG5E5gWwTWy8iNkXtj-116" edge="1">
          <mxGeometry width="50" height="50" relative="1" as="geometry">
            <mxPoint x="1250" y="1700" as="sourcePoint" />
            <mxPoint x="1300" y="1650" as="targetPoint" />
          </mxGeometry>
        </mxCell>
        <mxCell id="uNSG5E5gWwTWy8iNkXtj-118" value="Результат обработки данных" style="edgeLabel;html=1;align=center;verticalAlign=middle;resizable=0;points=[];" parent="uNSG5E5gWwTWy8iNkXtj-117" vertex="1" connectable="0">
          <mxGeometry x="-0.4542" relative="1" as="geometry">
            <mxPoint y="-7" as="offset" />
          </mxGeometry>
        </mxCell>
        <mxCell id="uNSG5E5gWwTWy8iNkXtj-119" value="" style="endArrow=classic;html=1;rounded=0;edgeStyle=orthogonalEdgeStyle;exitX=0.5;exitY=0;exitDx=0;exitDy=0;" parent="1" source="uNSG5E5gWwTWy8iNkXtj-116" edge="1">
          <mxGeometry width="50" height="50" relative="1" as="geometry">
            <mxPoint x="1290" y="1630" as="sourcePoint" />
            <mxPoint x="1200" y="1520" as="targetPoint" />
            <Array as="points">
              <mxPoint x="1050" y="1520" />
            </Array>
          </mxGeometry>
        </mxCell>
        <mxCell id="uNSG5E5gWwTWy8iNkXtj-120" value="&lt;div&gt;Зашифрованные данные &lt;br&gt;&lt;/div&gt;&lt;div&gt;о корректности работы подсистемы&lt;br&gt;&lt;/div&gt;&lt;div&gt;физическое устройство&lt;br&gt;&lt;/div&gt;" style="edgeLabel;html=1;align=center;verticalAlign=middle;resizable=0;points=[];" parent="uNSG5E5gWwTWy8iNkXtj-119" vertex="1" connectable="0">
          <mxGeometry x="-0.5504" y="2" relative="1" as="geometry">
            <mxPoint x="2" y="14" as="offset" />
          </mxGeometry>
        </mxCell>
        <mxCell id="uNSG5E5gWwTWy8iNkXtj-123" value="&lt;div&gt;Подсистема пользовательский &lt;br&gt;&lt;/div&gt;&lt;div&gt;интерфейс&lt;br&gt;&lt;/div&gt;" style="rounded=1;whiteSpace=wrap;html=1;" parent="1" vertex="1">
          <mxGeometry x="1200" y="1430" width="185" height="110" as="geometry" />
        </mxCell>
        <mxCell id="uNSG5E5gWwTWy8iNkXtj-124" value="&lt;div&gt;Подсистема физическое устройство&lt;br&gt;&lt;/div&gt;" style="rounded=1;whiteSpace=wrap;html=1;" parent="1" vertex="1">
          <mxGeometry x="-630" y="2152.5" width="180" height="125" as="geometry" />
        </mxCell>
        <mxCell id="uNSG5E5gWwTWy8iNkXtj-125" value="" style="endArrow=classic;html=1;rounded=0;edgeStyle=orthogonalEdgeStyle;entryX=0.25;entryY=0;entryDx=0;entryDy=0;exitX=0.5;exitY=1;exitDx=0;exitDy=0;" parent="1" target="uNSG5E5gWwTWy8iNkXtj-124" edge="1">
          <mxGeometry width="50" height="50" relative="1" as="geometry">
            <mxPoint x="-582.5" y="2050" as="sourcePoint" />
            <mxPoint x="20" y="1972.5" as="targetPoint" />
          </mxGeometry>
        </mxCell>
        <mxCell id="uNSG5E5gWwTWy8iNkXtj-126" value="&lt;div&gt;Зашифрованные данные &lt;br&gt;&lt;/div&gt;&lt;div&gt;о командах&lt;/div&gt;&lt;div&gt;от подсистемы облачная платформа&lt;br&gt;&lt;/div&gt;" style="edgeLabel;html=1;align=center;verticalAlign=middle;resizable=0;points=[];" parent="uNSG5E5gWwTWy8iNkXtj-125" vertex="1" connectable="0">
          <mxGeometry x="-0.2579" y="-1" relative="1" as="geometry">
            <mxPoint x="1" y="-6" as="offset" />
          </mxGeometry>
        </mxCell>
        <mxCell id="uNSG5E5gWwTWy8iNkXtj-127" value="&lt;div&gt;Зашифрованные данные &lt;br&gt;&lt;/div&gt;&lt;div&gt;о выполненных командах подсистемы&lt;br&gt;&lt;/div&gt;&lt;div&gt;физическое устройство&lt;br&gt;&lt;/div&gt;" style="edgeLabel;html=1;align=center;verticalAlign=middle;resizable=0;points=[];" parent="1" vertex="1" connectable="0">
          <mxGeometry x="-400" y="2121.999999999999" as="geometry" />
        </mxCell>
        <mxCell id="uNSG5E5gWwTWy8iNkXtj-128" value="" style="endArrow=classic;html=1;rounded=0;edgeStyle=orthogonalEdgeStyle;exitX=0.5;exitY=1;exitDx=0;exitDy=0;" parent="1" edge="1">
          <mxGeometry width="50" height="50" relative="1" as="geometry">
            <mxPoint x="44" y="2300" as="sourcePoint" />
            <mxPoint x="360" y="2300" as="targetPoint" />
          </mxGeometry>
        </mxCell>
        <mxCell id="uNSG5E5gWwTWy8iNkXtj-129" value="&lt;div&gt;Зашифрованные данные &lt;br&gt;&lt;/div&gt;&lt;div&gt;о командах&lt;/div&gt;&lt;div&gt;от подсистемы облачная платформа&lt;br&gt;&lt;/div&gt;" style="edgeLabel;html=1;align=center;verticalAlign=middle;resizable=0;points=[];" parent="uNSG5E5gWwTWy8iNkXtj-128" vertex="1" connectable="0">
          <mxGeometry x="-0.2579" y="-1" relative="1" as="geometry">
            <mxPoint x="1" y="-6" as="offset" />
          </mxGeometry>
        </mxCell>
        <mxCell id="uNSG5E5gWwTWy8iNkXtj-130" value="&lt;div&gt;Считывание зашифрованных команд&lt;/div&gt;&lt;div&gt;от подсистемы облачная платформа&lt;br&gt;&lt;/div&gt;" style="rounded=1;whiteSpace=wrap;html=1;" parent="1" vertex="1">
          <mxGeometry x="340" y="2257.5" width="200" height="82" as="geometry" />
        </mxCell>
        <mxCell id="uNSG5E5gWwTWy8iNkXtj-131" value="Активация необходимых контроллеров " style="rounded=1;whiteSpace=wrap;html=1;" parent="1" vertex="1">
          <mxGeometry x="760" y="2257.5" width="180" height="79" as="geometry" />
        </mxCell>
        <mxCell id="uNSG5E5gWwTWy8iNkXtj-132" value="" style="endArrow=classic;html=1;rounded=0;edgeStyle=orthogonalEdgeStyle;entryX=0;entryY=0.25;entryDx=0;entryDy=0;exitX=1;exitY=0.25;exitDx=0;exitDy=0;" parent="1" source="uNSG5E5gWwTWy8iNkXtj-130" target="uNSG5E5gWwTWy8iNkXtj-131" edge="1">
          <mxGeometry width="50" height="50" relative="1" as="geometry">
            <mxPoint x="560" y="2283" as="sourcePoint" />
            <mxPoint x="520" y="2390" as="targetPoint" />
          </mxGeometry>
        </mxCell>
        <mxCell id="uNSG5E5gWwTWy8iNkXtj-133" value="&lt;div&gt;Зашифрованные данные&lt;/div&gt;&lt;div&gt;об активации необходимых &lt;br&gt;&lt;/div&gt;&lt;div&gt;контроллеров&lt;br&gt;&lt;/div&gt;" style="edgeLabel;html=1;align=center;verticalAlign=middle;resizable=0;points=[];" parent="uNSG5E5gWwTWy8iNkXtj-132" vertex="1" connectable="0">
          <mxGeometry x="-0.1754" y="2" relative="1" as="geometry">
            <mxPoint x="23" y="1" as="offset" />
          </mxGeometry>
        </mxCell>
        <mxCell id="uNSG5E5gWwTWy8iNkXtj-135" value="" style="endArrow=classic;html=1;rounded=0;edgeStyle=orthogonalEdgeStyle;exitX=0.5;exitY=0;exitDx=0;exitDy=0;" parent="1" source="uNSG5E5gWwTWy8iNkXtj-134" target="uNSG5E5gWwTWy8iNkXtj-130" edge="1">
          <mxGeometry width="50" height="50" relative="1" as="geometry">
            <mxPoint x="590" y="2440" as="sourcePoint" />
            <mxPoint x="640" y="2390" as="targetPoint" />
            <Array as="points">
              <mxPoint x="465" y="2390" />
              <mxPoint x="460" y="2390" />
              <mxPoint x="460" y="2400" />
              <mxPoint x="465" y="2400" />
              <mxPoint x="465" y="2390" />
              <mxPoint x="460" y="2390" />
            </Array>
          </mxGeometry>
        </mxCell>
        <mxCell id="uNSG5E5gWwTWy8iNkXtj-134" value="&lt;div&gt;Зашифрованные данные&lt;/div&gt;&lt;div&gt;об активации необходимых контроллеров&lt;br&gt;&lt;/div&gt;&amp;nbsp;для выполнения команд" style="html=1;dashed=0;whitespace=wrap;shape=partialRectangle;right=0;" parent="1" vertex="1">
          <mxGeometry x="360" y="2380" width="230" height="50" as="geometry" />
        </mxCell>
        <mxCell id="uNSG5E5gWwTWy8iNkXtj-136" value="&lt;div&gt;Формирование запроса в зашифрованном виде подсистеме о выполненных командах&lt;br&gt;&lt;/div&gt;" style="rounded=1;whiteSpace=wrap;html=1;" parent="1" vertex="1">
          <mxGeometry x="1160" y="2226.5" width="185" height="110" as="geometry" />
        </mxCell>
        <mxCell id="uNSG5E5gWwTWy8iNkXtj-137" value="" style="endArrow=classic;html=1;rounded=0;edgeStyle=orthogonalEdgeStyle;exitX=1;exitY=0.25;exitDx=0;exitDy=0;entryX=0;entryY=0.25;entryDx=0;entryDy=0;" parent="1" source="uNSG5E5gWwTWy8iNkXtj-131" target="uNSG5E5gWwTWy8iNkXtj-136" edge="1">
          <mxGeometry width="50" height="50" relative="1" as="geometry">
            <mxPoint x="950" y="2440" as="sourcePoint" />
            <mxPoint x="1000" y="2390" as="targetPoint" />
          </mxGeometry>
        </mxCell>
        <mxCell id="uNSG5E5gWwTWy8iNkXtj-138" value="&lt;div&gt;Результат &lt;br&gt;&lt;/div&gt;&lt;div&gt;активации&lt;br&gt;&lt;/div&gt;&lt;div&gt;необходимых контроллеров&lt;br&gt;&lt;/div&gt;" style="edgeLabel;html=1;align=center;verticalAlign=middle;resizable=0;points=[];" parent="uNSG5E5gWwTWy8iNkXtj-137" vertex="1" connectable="0">
          <mxGeometry x="-0.3094" y="-1" relative="1" as="geometry">
            <mxPoint x="16" y="-8" as="offset" />
          </mxGeometry>
        </mxCell>
        <mxCell id="uNSG5E5gWwTWy8iNkXtj-139" value="" style="endArrow=classic;html=1;rounded=0;edgeStyle=orthogonalEdgeStyle;exitX=0.75;exitY=0;exitDx=0;exitDy=0;entryX=0.5;entryY=1;entryDx=0;entryDy=0;" parent="1" source="uNSG5E5gWwTWy8iNkXtj-134" target="uNSG5E5gWwTWy8iNkXtj-136" edge="1">
          <mxGeometry width="50" height="50" relative="1" as="geometry">
            <mxPoint x="790" y="2420" as="sourcePoint" />
            <mxPoint x="840" y="2370" as="targetPoint" />
            <Array as="points">
              <mxPoint x="580" y="2380" />
              <mxPoint x="580" y="2370" />
              <mxPoint x="1253" y="2370" />
            </Array>
          </mxGeometry>
        </mxCell>
        <mxCell id="uNSG5E5gWwTWy8iNkXtj-140" value="" style="endArrow=classic;html=1;rounded=0;edgeStyle=orthogonalEdgeStyle;exitX=1;exitY=0.5;exitDx=0;exitDy=0;" parent="1" source="uNSG5E5gWwTWy8iNkXtj-136" edge="1">
          <mxGeometry width="50" height="50" relative="1" as="geometry">
            <mxPoint x="1440" y="2280" as="sourcePoint" />
            <mxPoint x="1630" y="2281" as="targetPoint" />
          </mxGeometry>
        </mxCell>
        <mxCell id="uNSG5E5gWwTWy8iNkXtj-141" value="&lt;div&gt;Зашифрованные данные &lt;br&gt;&lt;/div&gt;&lt;div&gt;о выполненных командах подсистемы&lt;br&gt;&lt;/div&gt;&lt;div&gt;физическое устройство&lt;br&gt;&lt;/div&gt;" style="edgeLabel;html=1;align=center;verticalAlign=middle;resizable=0;points=[];" parent="uNSG5E5gWwTWy8iNkXtj-140" vertex="1" connectable="0">
          <mxGeometry x="-0.2862" y="-3" relative="1" as="geometry">
            <mxPoint x="43" y="-3" as="offset" />
          </mxGeometry>
        </mxCell>
        <mxCell id="uNSG5E5gWwTWy8iNkXtj-142" value="Text" style="text;html=1;align=center;verticalAlign=middle;resizable=0;points=[];autosize=1;strokeColor=none;fillColor=none;" parent="1" vertex="1">
          <mxGeometry x="630" y="420" width="40" height="20" as="geometry" />
        </mxCell>
        <mxCell id="uNSG5E5gWwTWy8iNkXtj-14" value="Пользователь" style="html=1;dashed=0;whitespace=wrap;" parent="1" vertex="1">
          <mxGeometry x="150" y="732" width="100" height="50" as="geometry" />
        </mxCell>
        <mxCell id="l5EXjZ7SIwJ0zijpVVoK-1" value="Подсистема &quot;Облачная платформа&quot;" style="rounded=1;whiteSpace=wrap;html=1;" vertex="1" parent="1">
          <mxGeometry x="-1110" y="687" width="210" height="140" as="geometry" />
        </mxCell>
        <mxCell id="l5EXjZ7SIwJ0zijpVVoK-2" value="&lt;div&gt;Подсистема физическое устройство&lt;br&gt;&lt;/div&gt;" style="rounded=1;whiteSpace=wrap;html=1;" vertex="1" parent="1">
          <mxGeometry x="-610" y="680" width="210" height="140" as="geometry" />
        </mxCell>
        <mxCell id="l5EXjZ7SIwJ0zijpVVoK-3" value="" style="endArrow=classic;html=1;rounded=0;edgeStyle=orthogonalEdgeStyle;exitX=1;exitY=0.25;exitDx=0;exitDy=0;entryX=0;entryY=0.25;entryDx=0;entryDy=0;" edge="1" parent="1" target="l5EXjZ7SIwJ0zijpVVoK-2" source="l5EXjZ7SIwJ0zijpVVoK-1">
          <mxGeometry width="50" height="50" relative="1" as="geometry">
            <mxPoint x="-935.7099999999991" y="700" as="sourcePoint" />
            <mxPoint x="-760" y="850" as="targetPoint" />
          </mxGeometry>
        </mxCell>
        <mxCell id="l5EXjZ7SIwJ0zijpVVoK-4" value="&lt;div&gt;Зашифрованные данные &lt;br&gt;&lt;/div&gt;&lt;div&gt;о команде&lt;/div&gt;&lt;div&gt;от подсистемы облачная платформа&lt;br&gt;&lt;/div&gt;" style="edgeLabel;html=1;align=center;verticalAlign=middle;resizable=0;points=[];" vertex="1" connectable="0" parent="l5EXjZ7SIwJ0zijpVVoK-3">
          <mxGeometry x="-0.2229" y="1" relative="1" as="geometry">
            <mxPoint x="22" y="-1" as="offset" />
          </mxGeometry>
        </mxCell>
        <mxCell id="l5EXjZ7SIwJ0zijpVVoK-5" value="" style="endArrow=classic;html=1;rounded=0;edgeStyle=orthogonalEdgeStyle;exitX=0;exitY=0.75;exitDx=0;exitDy=0;entryX=1.011;entryY=0.626;entryDx=0;entryDy=0;entryPerimeter=0;" edge="1" parent="1" source="l5EXjZ7SIwJ0zijpVVoK-2" target="l5EXjZ7SIwJ0zijpVVoK-1">
          <mxGeometry width="50" height="50" relative="1" as="geometry">
            <mxPoint x="-820" y="900" as="sourcePoint" />
            <mxPoint x="-935.7099999999991" y="770" as="targetPoint" />
          </mxGeometry>
        </mxCell>
        <mxCell id="l5EXjZ7SIwJ0zijpVVoK-6" value="&lt;div&gt;Зашифрованные данные &lt;br&gt;&lt;/div&gt;&lt;div&gt;о выполненной команде&lt;/div&gt;&lt;div&gt;от подсистемой физическое устройство&lt;br&gt;&lt;/div&gt;" style="edgeLabel;html=1;align=center;verticalAlign=middle;resizable=0;points=[];" vertex="1" connectable="0" parent="l5EXjZ7SIwJ0zijpVVoK-5">
          <mxGeometry x="0.2481" y="1" relative="1" as="geometry">
            <mxPoint x="25" y="4" as="offset" />
          </mxGeometry>
        </mxCell>
        <mxCell id="l5EXjZ7SIwJ0zijpVVoK-8" value="" style="endArrow=classic;html=1;rounded=0;edgeStyle=orthogonalEdgeStyle;exitX=0.5;exitY=0;exitDx=0;exitDy=0;" edge="1" parent="1" source="l5EXjZ7SIwJ0zijpVVoK-17">
          <mxGeometry width="50" height="50" relative="1" as="geometry">
            <mxPoint x="-2410" y="665" as="sourcePoint" />
            <mxPoint x="-2050" y="730" as="targetPoint" />
            <Array as="points">
              <mxPoint x="-2420" y="670" />
              <mxPoint x="-2480" y="670" />
              <mxPoint x="-2480" y="545" />
              <mxPoint x="-2190" y="545" />
              <mxPoint x="-2190" y="540" />
              <mxPoint x="-2050" y="540" />
            </Array>
          </mxGeometry>
        </mxCell>
        <mxCell id="l5EXjZ7SIwJ0zijpVVoK-9" value="&lt;div&gt;Запрос на аутентификацию в подсистеме&lt;/div&gt;&lt;div&gt;облачная платформа&lt;br&gt;&lt;/div&gt;" style="edgeLabel;html=1;align=center;verticalAlign=middle;resizable=0;points=[];" vertex="1" connectable="0" parent="l5EXjZ7SIwJ0zijpVVoK-8">
          <mxGeometry x="0.028" y="2" relative="1" as="geometry">
            <mxPoint x="61" as="offset" />
          </mxGeometry>
        </mxCell>
        <mxCell id="l5EXjZ7SIwJ0zijpVVoK-10" value="" style="endArrow=classic;html=1;rounded=0;edgeStyle=orthogonalEdgeStyle;exitX=0;exitY=0.75;exitDx=0;exitDy=0;" edge="1" parent="1">
          <mxGeometry width="50" height="50" relative="1" as="geometry">
            <mxPoint x="-2269.9999999999995" y="1076.9999999999998" as="sourcePoint" />
            <mxPoint x="-2449.9999999999995" y="767" as="targetPoint" />
            <Array as="points">
              <mxPoint x="-2450" y="1077" />
            </Array>
          </mxGeometry>
        </mxCell>
        <mxCell id="l5EXjZ7SIwJ0zijpVVoK-11" value="&lt;div&gt;Данные о авторизации &lt;br&gt;&lt;/div&gt;&lt;div&gt;в подсистеме&lt;/div&gt;&lt;div&gt;облачная платформа&lt;br&gt; &lt;/div&gt;" style="edgeLabel;html=1;align=center;verticalAlign=middle;resizable=0;points=[];" vertex="1" connectable="0" parent="l5EXjZ7SIwJ0zijpVVoK-10">
          <mxGeometry x="0.0731" y="-3" relative="1" as="geometry">
            <mxPoint x="7" y="13" as="offset" />
          </mxGeometry>
        </mxCell>
        <mxCell id="l5EXjZ7SIwJ0zijpVVoK-12" value="" style="endArrow=classic;html=1;rounded=0;edgeStyle=orthogonalEdgeStyle;" edge="1" parent="1">
          <mxGeometry width="50" height="50" relative="1" as="geometry">
            <mxPoint x="-2469.9999999999995" y="735.0000000000002" as="sourcePoint" />
            <mxPoint x="-2206" y="759.9999999999998" as="targetPoint" />
            <Array as="points">
              <mxPoint x="-2420" y="735" />
              <mxPoint x="-2420" y="675" />
              <mxPoint x="-2266" y="675" />
              <mxPoint x="-2266" y="760" />
            </Array>
          </mxGeometry>
        </mxCell>
        <mxCell id="l5EXjZ7SIwJ0zijpVVoK-13" value="&lt;div&gt;Запрос на управление подсистемой &lt;br&gt;&lt;/div&gt;&lt;div&gt;физическое устройство&lt;br&gt;&lt;/div&gt;" style="edgeLabel;html=1;align=center;verticalAlign=middle;resizable=0;points=[];" vertex="1" connectable="0" parent="l5EXjZ7SIwJ0zijpVVoK-12">
          <mxGeometry x="-0.0471" relative="1" as="geometry">
            <mxPoint x="56" as="offset" />
          </mxGeometry>
        </mxCell>
        <mxCell id="l5EXjZ7SIwJ0zijpVVoK-14" value="&lt;div&gt;Обработанный зашифрованный запрос &lt;br&gt;&lt;/div&gt;&lt;div&gt;о корректности работы подсистемы&lt;/div&gt;&lt;div&gt;физическое устройство&lt;br&gt;&lt;/div&gt;" style="edgeLabel;html=1;align=center;verticalAlign=middle;resizable=0;points=[];" vertex="1" connectable="0" parent="1">
          <mxGeometry x="-2130.4285714285716" y="1012" as="geometry" />
        </mxCell>
        <mxCell id="l5EXjZ7SIwJ0zijpVVoK-15" value="" style="endArrow=classic;html=1;rounded=0;edgeStyle=orthogonalEdgeStyle;entryX=0.25;entryY=1;entryDx=0;entryDy=0;exitX=0.5;exitY=0;exitDx=0;exitDy=0;" edge="1" parent="1">
          <mxGeometry width="50" height="50" relative="1" as="geometry">
            <mxPoint x="-2309.9999999999995" y="974.9999999999998" as="sourcePoint" />
            <mxPoint x="-2416.2499999999995" y="767" as="targetPoint" />
            <Array as="points">
              <mxPoint x="-2310" y="895" />
              <mxPoint x="-2416" y="895" />
            </Array>
          </mxGeometry>
        </mxCell>
        <mxCell id="l5EXjZ7SIwJ0zijpVVoK-16" value="&lt;div&gt;Данные о корректности&lt;/div&gt;&lt;div&gt; работы подсистемы&lt;/div&gt;&lt;div&gt;физическое устройство&lt;br&gt;&lt;/div&gt;" style="edgeLabel;html=1;align=center;verticalAlign=middle;resizable=0;points=[];" vertex="1" connectable="0" parent="l5EXjZ7SIwJ0zijpVVoK-15">
          <mxGeometry x="-0.1883" y="2" relative="1" as="geometry">
            <mxPoint as="offset" />
          </mxGeometry>
        </mxCell>
        <mxCell id="l5EXjZ7SIwJ0zijpVVoK-17" value="Пользователь" style="html=1;dashed=0;whitespace=wrap;" vertex="1" parent="1">
          <mxGeometry x="-2470" y="717" width="100" height="50" as="geometry" />
        </mxCell>
        <mxCell id="l5EXjZ7SIwJ0zijpVVoK-18" value="" style="endArrow=classic;html=1;rounded=0;edgeStyle=orthogonalEdgeStyle;entryX=0;entryY=0.25;entryDx=0;entryDy=0;" edge="1" parent="1" target="l5EXjZ7SIwJ0zijpVVoK-7">
          <mxGeometry width="50" height="50" relative="1" as="geometry">
            <mxPoint x="-1840" y="722" as="sourcePoint" />
            <mxPoint x="-1840" y="690" as="targetPoint" />
          </mxGeometry>
        </mxCell>
        <mxCell id="l5EXjZ7SIwJ0zijpVVoK-19" value="&lt;div&gt;Запрос на аутентификацию в подсистеме&lt;/div&gt;&lt;div&gt;облачная платформа&lt;br&gt;&lt;/div&gt;" style="edgeLabel;html=1;align=center;verticalAlign=middle;resizable=0;points=[];" vertex="1" connectable="0" parent="l5EXjZ7SIwJ0zijpVVoK-18">
          <mxGeometry x="-0.1584" y="-5" relative="1" as="geometry">
            <mxPoint as="offset" />
          </mxGeometry>
        </mxCell>
        <mxCell id="l5EXjZ7SIwJ0zijpVVoK-20" value="" style="endArrow=classic;html=1;rounded=0;edgeStyle=orthogonalEdgeStyle;entryX=0;entryY=0.75;entryDx=0;entryDy=0;" edge="1" parent="1" target="l5EXjZ7SIwJ0zijpVVoK-7">
          <mxGeometry width="50" height="50" relative="1" as="geometry">
            <mxPoint x="-1840" y="792" as="sourcePoint" />
            <mxPoint x="-1700" y="760" as="targetPoint" />
          </mxGeometry>
        </mxCell>
        <mxCell id="l5EXjZ7SIwJ0zijpVVoK-21" value="&lt;div&gt;Запрос на управление подсистемой &lt;br&gt;&lt;/div&gt;&lt;div&gt;физическое устройство&lt;br&gt;&lt;/div&gt;" style="edgeLabel;html=1;align=center;verticalAlign=middle;resizable=0;points=[];" vertex="1" connectable="0" parent="l5EXjZ7SIwJ0zijpVVoK-20">
          <mxGeometry x="-0.2277" y="-5" relative="1" as="geometry">
            <mxPoint x="23" y="-7" as="offset" />
          </mxGeometry>
        </mxCell>
        <mxCell id="l5EXjZ7SIwJ0zijpVVoK-22" value="" style="endArrow=classic;html=1;rounded=0;edgeStyle=orthogonalEdgeStyle;exitX=0.301;exitY=0.999;exitDx=0;exitDy=0;exitPerimeter=0;" edge="1" parent="1" source="l5EXjZ7SIwJ0zijpVVoK-7">
          <mxGeometry width="50" height="50" relative="1" as="geometry">
            <mxPoint x="-1480" y="1040" as="sourcePoint" />
            <mxPoint x="-1507" y="980" as="targetPoint" />
            <Array as="points">
              <mxPoint x="-1507" y="980" />
            </Array>
          </mxGeometry>
        </mxCell>
        <mxCell id="l5EXjZ7SIwJ0zijpVVoK-25" value="&lt;div&gt;Данные о авторизации &lt;br&gt;&lt;/div&gt;&lt;div&gt;в подсистеме&lt;/div&gt;&lt;div&gt;облачная платформа&lt;br&gt; &lt;/div&gt;" style="edgeLabel;html=1;align=center;verticalAlign=middle;resizable=0;points=[];" vertex="1" connectable="0" parent="l5EXjZ7SIwJ0zijpVVoK-22">
          <mxGeometry x="-0.329" y="-3" relative="1" as="geometry">
            <mxPoint x="-10" y="-18" as="offset" />
          </mxGeometry>
        </mxCell>
        <mxCell id="l5EXjZ7SIwJ0zijpVVoK-23" value="" style="endArrow=classic;html=1;rounded=0;edgeStyle=orthogonalEdgeStyle;exitX=0.301;exitY=0.999;exitDx=0;exitDy=0;exitPerimeter=0;" edge="1" parent="1">
          <mxGeometry width="50" height="50" relative="1" as="geometry">
            <mxPoint x="-1419.9300000000005" y="815.0000000000001" as="sourcePoint" />
            <mxPoint x="-1430" y="975" as="targetPoint" />
            <Array as="points">
              <mxPoint x="-1430" y="815" />
              <mxPoint x="-1430" y="968" />
            </Array>
          </mxGeometry>
        </mxCell>
        <mxCell id="l5EXjZ7SIwJ0zijpVVoK-24" value="&lt;div&gt;Данные о корректности&lt;/div&gt;&lt;div&gt; работы подсистемы&lt;/div&gt;&lt;div&gt;физическое устройство&lt;br&gt;&lt;/div&gt;" style="edgeLabel;html=1;align=center;verticalAlign=middle;resizable=0;points=[];" vertex="1" connectable="0" parent="l5EXjZ7SIwJ0zijpVVoK-23">
          <mxGeometry x="-0.1877" y="-4" relative="1" as="geometry">
            <mxPoint x="24" y="37" as="offset" />
          </mxGeometry>
        </mxCell>
        <mxCell id="l5EXjZ7SIwJ0zijpVVoK-7" value="&lt;div&gt;Подсистема пользовательский интерфейс&lt;br&gt;&lt;/div&gt;" style="rounded=1;whiteSpace=wrap;html=1;" vertex="1" parent="1">
          <mxGeometry x="-1570" y="687" width="210" height="140" as="geometry" />
        </mxCell>
        <mxCell id="l5EXjZ7SIwJ0zijpVVoK-36" value="Подсистема &quot;Облачная платформа&quot;" style="rounded=1;whiteSpace=wrap;html=1;" vertex="1" parent="1">
          <mxGeometry x="-1825.71" y="-95" width="210" height="140" as="geometry" />
        </mxCell>
        <mxCell id="l5EXjZ7SIwJ0zijpVVoK-37" value="" style="endArrow=classic;html=1;rounded=0;edgeStyle=orthogonalEdgeStyle;exitX=1;exitY=0.5;exitDx=0;exitDy=0;" edge="1" parent="1" target="l5EXjZ7SIwJ0zijpVVoK-36">
          <mxGeometry width="50" height="50" relative="1" as="geometry">
            <mxPoint x="-1940" y="-80" as="sourcePoint" />
            <mxPoint x="-1850" y="50" as="targetPoint" />
            <Array as="points">
              <mxPoint x="-1940" y="-90" />
              <mxPoint x="-1870" y="-90" />
              <mxPoint x="-1870" y="-160" />
              <mxPoint x="-1640" y="-160" />
            </Array>
          </mxGeometry>
        </mxCell>
        <mxCell id="l5EXjZ7SIwJ0zijpVVoK-38" value="&lt;div&gt;Зашифрованные пользовательские &lt;br&gt;&lt;/div&gt;&lt;div&gt;данные&lt;br&gt;&lt;/div&gt;" style="edgeLabel;html=1;align=center;verticalAlign=middle;resizable=0;points=[];" vertex="1" connectable="0" parent="l5EXjZ7SIwJ0zijpVVoK-37">
          <mxGeometry x="-0.2744" y="-3" relative="1" as="geometry">
            <mxPoint x="109" y="-3" as="offset" />
          </mxGeometry>
        </mxCell>
        <mxCell id="l5EXjZ7SIwJ0zijpVVoK-39" value="" style="endArrow=classic;html=1;rounded=0;edgeStyle=orthogonalEdgeStyle;exitX=0.75;exitY=1;exitDx=0;exitDy=0;entryX=1;entryY=0.75;entryDx=0;entryDy=0;" edge="1" parent="1" source="l5EXjZ7SIwJ0zijpVVoK-36">
          <mxGeometry width="50" height="50" relative="1" as="geometry">
            <mxPoint x="-1806.43" y="149.99999999999977" as="sourcePoint" />
            <mxPoint x="-2020" y="310" as="targetPoint" />
            <Array as="points">
              <mxPoint x="-1642" y="310" />
            </Array>
          </mxGeometry>
        </mxCell>
        <mxCell id="l5EXjZ7SIwJ0zijpVVoK-40" value="&lt;div&gt;Зашифрованный запрос &lt;br&gt;&lt;/div&gt;&lt;div&gt;на авторизацию подсистемы&lt;/div&gt;&lt;div&gt;пользовательский интерфейс &lt;br&gt;&lt;/div&gt;&lt;div&gt;в&lt;/div&gt;&lt;div&gt;подсистеме облачная платформа &lt;br&gt;&lt;/div&gt;" style="edgeLabel;html=1;align=center;verticalAlign=middle;resizable=0;points=[];" vertex="1" connectable="0" parent="l5EXjZ7SIwJ0zijpVVoK-39">
          <mxGeometry x="0.5153" relative="1" as="geometry">
            <mxPoint x="29" as="offset" />
          </mxGeometry>
        </mxCell>
        <mxCell id="l5EXjZ7SIwJ0zijpVVoK-41" value="" style="endArrow=classic;html=1;rounded=0;edgeStyle=orthogonalEdgeStyle;exitX=0.5;exitY=1;exitDx=0;exitDy=0;entryX=0;entryY=0.5;entryDx=0;entryDy=0;" edge="1" parent="1" target="l5EXjZ7SIwJ0zijpVVoK-36">
          <mxGeometry width="50" height="50" relative="1" as="geometry">
            <mxPoint x="-2000" y="-50" as="sourcePoint" />
            <mxPoint x="-1850" y="125" as="targetPoint" />
            <Array as="points">
              <mxPoint x="-2000" y="60" />
              <mxPoint x="-1850" y="60" />
              <mxPoint x="-1850" y="-25" />
            </Array>
          </mxGeometry>
        </mxCell>
        <mxCell id="l5EXjZ7SIwJ0zijpVVoK-42" value="&lt;div&gt;Зашифрованная пользовательская&lt;/div&gt;&lt;div&gt;команда управления&lt;br&gt;&lt;/div&gt;" style="edgeLabel;html=1;align=center;verticalAlign=middle;resizable=0;points=[];" vertex="1" connectable="0" parent="l5EXjZ7SIwJ0zijpVVoK-41">
          <mxGeometry x="-0.2744" y="-3" relative="1" as="geometry">
            <mxPoint x="47" y="-3" as="offset" />
          </mxGeometry>
        </mxCell>
        <mxCell id="l5EXjZ7SIwJ0zijpVVoK-43" value="" style="endArrow=classic;html=1;rounded=0;edgeStyle=orthogonalEdgeStyle;exitX=0.5;exitY=1;exitDx=0;exitDy=0;entryX=1;entryY=0.25;entryDx=0;entryDy=0;" edge="1" parent="1" source="l5EXjZ7SIwJ0zijpVVoK-36">
          <mxGeometry width="50" height="50" relative="1" as="geometry">
            <mxPoint x="-1910" y="190" as="sourcePoint" />
            <mxPoint x="-2020" y="230" as="targetPoint" />
            <Array as="points">
              <mxPoint x="-1695" y="230" />
            </Array>
          </mxGeometry>
        </mxCell>
        <mxCell id="l5EXjZ7SIwJ0zijpVVoK-44" value="&lt;div&gt;Зашифрованный запрос &lt;br&gt;&lt;/div&gt;&lt;div&gt;о корректности работы подсистемы&lt;/div&gt;&lt;div&gt;физическое устройство&lt;br&gt;&lt;/div&gt;" style="edgeLabel;html=1;align=center;verticalAlign=middle;resizable=0;points=[];" vertex="1" connectable="0" parent="l5EXjZ7SIwJ0zijpVVoK-43">
          <mxGeometry x="0.3115" relative="1" as="geometry">
            <mxPoint as="offset" />
          </mxGeometry>
        </mxCell>
        <mxCell id="l5EXjZ7SIwJ0zijpVVoK-46" value="" style="endArrow=classic;html=1;rounded=0;edgeStyle=orthogonalEdgeStyle;exitX=0.5;exitY=0;exitDx=0;exitDy=0;" edge="1" parent="1" source="l5EXjZ7SIwJ0zijpVVoK-7">
          <mxGeometry width="50" height="50" relative="1" as="geometry">
            <mxPoint x="-1210" y="540" as="sourcePoint" />
            <mxPoint x="-1050" y="687" as="targetPoint" />
            <Array as="points">
              <mxPoint x="-1405" y="590" />
              <mxPoint x="-1050" y="590" />
            </Array>
          </mxGeometry>
        </mxCell>
        <mxCell id="l5EXjZ7SIwJ0zijpVVoK-55" value="&lt;div&gt;Зашифрованная пользовательская&lt;/div&gt;&lt;div&gt;команда управления&lt;br&gt;&lt;/div&gt;" style="edgeLabel;html=1;align=center;verticalAlign=middle;resizable=0;points=[];" vertex="1" connectable="0" parent="l5EXjZ7SIwJ0zijpVVoK-46">
          <mxGeometry x="-0.0126" y="-3" relative="1" as="geometry">
            <mxPoint x="1" as="offset" />
          </mxGeometry>
        </mxCell>
        <mxCell id="l5EXjZ7SIwJ0zijpVVoK-47" value="" style="endArrow=classic;html=1;rounded=0;edgeStyle=orthogonalEdgeStyle;exitX=0.75;exitY=0;exitDx=0;exitDy=0;entryX=0.75;entryY=0;entryDx=0;entryDy=0;" edge="1" parent="1" source="l5EXjZ7SIwJ0zijpVVoK-7" target="l5EXjZ7SIwJ0zijpVVoK-1">
          <mxGeometry width="50" height="50" relative="1" as="geometry">
            <mxPoint x="-1030" y="390" as="sourcePoint" />
            <mxPoint x="-980" y="340" as="targetPoint" />
            <Array as="points">
              <mxPoint x="-1470" y="687" />
              <mxPoint x="-1470" y="480" />
              <mxPoint x="-952" y="480" />
            </Array>
          </mxGeometry>
        </mxCell>
        <mxCell id="l5EXjZ7SIwJ0zijpVVoK-54" value="&lt;div&gt;Зашифрованные пользовательские &lt;br&gt;&lt;/div&gt;&lt;div&gt;данные&lt;br&gt;&lt;/div&gt;" style="edgeLabel;html=1;align=center;verticalAlign=middle;resizable=0;points=[];" vertex="1" connectable="0" parent="l5EXjZ7SIwJ0zijpVVoK-47">
          <mxGeometry x="-0.0229" y="2" relative="1" as="geometry">
            <mxPoint as="offset" />
          </mxGeometry>
        </mxCell>
        <mxCell id="l5EXjZ7SIwJ0zijpVVoK-48" value="" style="endArrow=classic;html=1;rounded=0;edgeStyle=orthogonalEdgeStyle;exitX=0;exitY=0.25;exitDx=0;exitDy=0;entryX=1;entryY=0.25;entryDx=0;entryDy=0;" edge="1" parent="1" source="l5EXjZ7SIwJ0zijpVVoK-1" target="l5EXjZ7SIwJ0zijpVVoK-7">
          <mxGeometry width="50" height="50" relative="1" as="geometry">
            <mxPoint x="-1190" y="320" as="sourcePoint" />
            <mxPoint x="-1140" y="270" as="targetPoint" />
          </mxGeometry>
        </mxCell>
        <mxCell id="l5EXjZ7SIwJ0zijpVVoK-51" value="&lt;div&gt;Зашифрованный запрос &lt;br&gt;&lt;/div&gt;&lt;div&gt;на авторизацию подсистемы&lt;/div&gt;&lt;div&gt;пользовательский интерфейс &lt;br&gt;&lt;/div&gt;&lt;div&gt;в&lt;/div&gt;&lt;div&gt;подсистеме облачная платформа &lt;br&gt;&lt;/div&gt;" style="edgeLabel;html=1;align=center;verticalAlign=middle;resizable=0;points=[];" vertex="1" connectable="0" parent="l5EXjZ7SIwJ0zijpVVoK-48">
          <mxGeometry x="0.2772" y="1" relative="1" as="geometry">
            <mxPoint x="40" y="-13" as="offset" />
          </mxGeometry>
        </mxCell>
        <mxCell id="l5EXjZ7SIwJ0zijpVVoK-49" value="" style="endArrow=classic;html=1;rounded=0;edgeStyle=orthogonalEdgeStyle;exitX=0;exitY=0.75;exitDx=0;exitDy=0;" edge="1" parent="1" source="l5EXjZ7SIwJ0zijpVVoK-1">
          <mxGeometry width="50" height="50" relative="1" as="geometry">
            <mxPoint x="-1020" y="970" as="sourcePoint" />
            <mxPoint x="-1360" y="810" as="targetPoint" />
            <Array as="points">
              <mxPoint x="-1110" y="810" />
              <mxPoint x="-1360" y="810" />
            </Array>
          </mxGeometry>
        </mxCell>
        <mxCell id="l5EXjZ7SIwJ0zijpVVoK-53" value="&lt;div&gt;Зашифрованный запрос &lt;br&gt;&lt;/div&gt;&lt;div&gt;о корректности работы подсистемы&lt;/div&gt;&lt;div&gt;физическое устройство&lt;br&gt;&lt;/div&gt;" style="edgeLabel;html=1;align=center;verticalAlign=middle;resizable=0;points=[];" vertex="1" connectable="0" parent="l5EXjZ7SIwJ0zijpVVoK-49">
          <mxGeometry x="0.2512" y="-2" relative="1" as="geometry">
            <mxPoint x="30" as="offset" />
          </mxGeometry>
        </mxCell>
        <mxCell id="l5EXjZ7SIwJ0zijpVVoK-58" value="" style="endArrow=classic;html=1;rounded=0;edgeStyle=orthogonalEdgeStyle;exitX=0;exitY=0.75;exitDx=0;exitDy=0;" edge="1" parent="1">
          <mxGeometry width="50" height="50" relative="1" as="geometry">
            <mxPoint x="1137" y="92" as="sourcePoint" />
            <mxPoint x="827" y="90" as="targetPoint" />
            <Array as="points">
              <mxPoint x="957" y="92" />
            </Array>
          </mxGeometry>
        </mxCell>
        <mxCell id="l5EXjZ7SIwJ0zijpVVoK-59" value="&lt;div&gt;Данные о авторизации &lt;br&gt;&lt;/div&gt;&lt;div&gt;в подсистеме&lt;/div&gt;&lt;div&gt;облачная платформа&lt;br&gt; &lt;/div&gt;" style="edgeLabel;html=1;align=center;verticalAlign=middle;resizable=0;points=[];" vertex="1" connectable="0" parent="l5EXjZ7SIwJ0zijpVVoK-58">
          <mxGeometry x="0.0731" y="-3" relative="1" as="geometry">
            <mxPoint x="10" y="1" as="offset" />
          </mxGeometry>
        </mxCell>
        <mxCell id="l5EXjZ7SIwJ0zijpVVoK-60" value="Считывание данных&amp;nbsp; и формирование запроса на аутентификацию пользователя к подсистеме облачная платформа" style="rounded=1;whiteSpace=wrap;html=1;" vertex="1" parent="1">
          <mxGeometry x="1130" y="-410" width="150" height="100" as="geometry" />
        </mxCell>
        <mxCell id="l5EXjZ7SIwJ0zijpVVoK-61" value="Шифрование полученных данных" style="rounded=1;whiteSpace=wrap;html=1;" vertex="1" parent="1">
          <mxGeometry x="1400" y="-240" width="120" height="60" as="geometry" />
        </mxCell>
        <mxCell id="l5EXjZ7SIwJ0zijpVVoK-62" value="" style="endArrow=classic;html=1;rounded=0;edgeStyle=orthogonalEdgeStyle;exitX=1;exitY=0.25;exitDx=0;exitDy=0;entryX=0;entryY=0.25;entryDx=0;entryDy=0;" edge="1" parent="1" source="l5EXjZ7SIwJ0zijpVVoK-60" target="l5EXjZ7SIwJ0zijpVVoK-61">
          <mxGeometry width="50" height="50" relative="1" as="geometry">
            <mxPoint x="1380" y="-180" as="sourcePoint" />
            <mxPoint x="1380" y="-295" as="targetPoint" />
            <Array as="points" />
          </mxGeometry>
        </mxCell>
        <mxCell id="l5EXjZ7SIwJ0zijpVVoK-63" value="&lt;div&gt;Сформированный&lt;/div&gt;&lt;div&gt;запрос с &lt;br&gt;&lt;/div&gt;&lt;div&gt;пользовательскими&lt;/div&gt;&lt;div&gt;данными&lt;br&gt;&lt;/div&gt;" style="edgeLabel;html=1;align=center;verticalAlign=middle;resizable=0;points=[];" vertex="1" connectable="0" parent="l5EXjZ7SIwJ0zijpVVoK-62">
          <mxGeometry x="-0.3231" relative="1" as="geometry">
            <mxPoint y="50" as="offset" />
          </mxGeometry>
        </mxCell>
        <mxCell id="l5EXjZ7SIwJ0zijpVVoK-67" value="&lt;div&gt;Обработка запросов от подсистемы облачнаяплатформа&lt;/div&gt;" style="rounded=1;whiteSpace=wrap;html=1;" vertex="1" parent="1">
          <mxGeometry x="1430" y="240" width="170" height="160" as="geometry" />
        </mxCell>
        <mxCell id="l5EXjZ7SIwJ0zijpVVoK-68" value="" style="endArrow=classic;html=1;rounded=0;edgeStyle=orthogonalEdgeStyle;entryX=1;entryY=0.75;entryDx=0;entryDy=0;" edge="1" parent="1" target="l5EXjZ7SIwJ0zijpVVoK-67">
          <mxGeometry width="50" height="50" relative="1" as="geometry">
            <mxPoint x="1978" y="360" as="sourcePoint" />
            <mxPoint x="1680" y="380" as="targetPoint" />
            <Array as="points">
              <mxPoint x="1978" y="360" />
            </Array>
          </mxGeometry>
        </mxCell>
        <mxCell id="l5EXjZ7SIwJ0zijpVVoK-69" value="&lt;div&gt;Зашифрованный запрос &lt;br&gt;&lt;/div&gt;&lt;div&gt;на авторизацию подсистемы&lt;/div&gt;&lt;div&gt;пользовательский интерфейс &lt;br&gt;&lt;/div&gt;&lt;div&gt;в&lt;/div&gt;&lt;div&gt;подсистеме облачная платформа &lt;br&gt;&lt;/div&gt;" style="edgeLabel;html=1;align=center;verticalAlign=middle;resizable=0;points=[];" vertex="1" connectable="0" parent="l5EXjZ7SIwJ0zijpVVoK-68">
          <mxGeometry x="0.5153" relative="1" as="geometry">
            <mxPoint x="89" y="15" as="offset" />
          </mxGeometry>
        </mxCell>
        <mxCell id="l5EXjZ7SIwJ0zijpVVoK-70" value="Расшифровка полученных данных" style="rounded=1;whiteSpace=wrap;html=1;" vertex="1" parent="1">
          <mxGeometry x="1080" y="240" width="120" height="160" as="geometry" />
        </mxCell>
        <mxCell id="l5EXjZ7SIwJ0zijpVVoK-71" value="" style="endArrow=classic;html=1;rounded=0;edgeStyle=orthogonalEdgeStyle;exitX=0;exitY=0.75;exitDx=0;exitDy=0;entryX=1;entryY=0.75;entryDx=0;entryDy=0;" edge="1" parent="1" source="l5EXjZ7SIwJ0zijpVVoK-67" target="l5EXjZ7SIwJ0zijpVVoK-70">
          <mxGeometry width="50" height="50" relative="1" as="geometry">
            <mxPoint x="1345.57" y="470" as="sourcePoint" />
            <mxPoint x="1395.57" y="420" as="targetPoint" />
            <Array as="points">
              <mxPoint x="1310" y="360" />
              <mxPoint x="1310" y="360" />
            </Array>
          </mxGeometry>
        </mxCell>
        <mxCell id="l5EXjZ7SIwJ0zijpVVoK-72" value="Обработанный &lt;br&gt;&lt;div&gt;зашифрованный запрос&lt;br&gt;&lt;/div&gt;о авторизации пользователя" style="edgeLabel;html=1;align=center;verticalAlign=middle;resizable=0;points=[];" vertex="1" connectable="0" parent="l5EXjZ7SIwJ0zijpVVoK-71">
          <mxGeometry x="0.3171" y="-5" relative="1" as="geometry">
            <mxPoint x="21" y="5" as="offset" />
          </mxGeometry>
        </mxCell>
        <mxCell id="l5EXjZ7SIwJ0zijpVVoK-75" value="Считывание данных и формирование запроса для управления подсистемой физическое устройство" style="rounded=1;whiteSpace=wrap;html=1;" vertex="1" parent="1">
          <mxGeometry x="1077" y="-190" width="130" height="110" as="geometry" />
        </mxCell>
        <mxCell id="l5EXjZ7SIwJ0zijpVVoK-76" value="" style="endArrow=classic;html=1;rounded=0;edgeStyle=orthogonalEdgeStyle;exitX=1;exitY=0.5;exitDx=0;exitDy=0;entryX=0;entryY=0.75;entryDx=0;entryDy=0;" edge="1" parent="1" source="l5EXjZ7SIwJ0zijpVVoK-75" target="l5EXjZ7SIwJ0zijpVVoK-61">
          <mxGeometry width="50" height="50" relative="1" as="geometry">
            <mxPoint x="1347" y="-20" as="sourcePoint" />
            <mxPoint x="1397.000000000001" y="-174.99999999999977" as="targetPoint" />
          </mxGeometry>
        </mxCell>
        <mxCell id="l5EXjZ7SIwJ0zijpVVoK-77" value="Сформированный&lt;div&gt;&lt;div&gt;запрос с &lt;br&gt;&lt;div&gt;командой управления&lt;/div&gt;&lt;div&gt;подсистемой&lt;/div&gt;физическое устройство&lt;/div&gt;&lt;/div&gt;" style="edgeLabel;html=1;align=center;verticalAlign=middle;resizable=0;points=[];" vertex="1" connectable="0" parent="l5EXjZ7SIwJ0zijpVVoK-76">
          <mxGeometry x="-0.3705" relative="1" as="geometry">
            <mxPoint x="17" y="-15" as="offset" />
          </mxGeometry>
        </mxCell>
        <mxCell id="l5EXjZ7SIwJ0zijpVVoK-78" value="" style="endArrow=classic;html=1;rounded=0;edgeStyle=orthogonalEdgeStyle;exitX=0.5;exitY=1;exitDx=0;exitDy=0;" edge="1" parent="1" source="l5EXjZ7SIwJ0zijpVVoK-61">
          <mxGeometry width="50" height="50" relative="1" as="geometry">
            <mxPoint x="1310" y="10" as="sourcePoint" />
            <mxPoint x="1850" y="-155" as="targetPoint" />
            <Array as="points">
              <mxPoint x="1460" y="-120" />
              <mxPoint x="1610" y="-120" />
              <mxPoint x="1610" y="-155" />
            </Array>
          </mxGeometry>
        </mxCell>
        <mxCell id="l5EXjZ7SIwJ0zijpVVoK-79" value="&lt;div&gt;Зашифрованная пользовательская&lt;/div&gt;&lt;div&gt;команда управления&lt;br&gt;&lt;/div&gt;" style="edgeLabel;html=1;align=center;verticalAlign=middle;resizable=0;points=[];" vertex="1" connectable="0" parent="l5EXjZ7SIwJ0zijpVVoK-78">
          <mxGeometry x="-0.2744" y="-3" relative="1" as="geometry">
            <mxPoint x="47" y="-3" as="offset" />
          </mxGeometry>
        </mxCell>
        <mxCell id="l5EXjZ7SIwJ0zijpVVoK-80" value="" style="endArrow=classic;html=1;rounded=0;edgeStyle=orthogonalEdgeStyle;entryX=1;entryY=0.25;entryDx=0;entryDy=0;" edge="1" parent="1" target="l5EXjZ7SIwJ0zijpVVoK-67">
          <mxGeometry width="50" height="50" relative="1" as="geometry">
            <mxPoint x="1940" y="280" as="sourcePoint" />
            <mxPoint x="1760" y="190" as="targetPoint" />
            <Array as="points">
              <mxPoint x="1925" y="280" />
            </Array>
          </mxGeometry>
        </mxCell>
        <mxCell id="l5EXjZ7SIwJ0zijpVVoK-81" value="&lt;div&gt;Зашифрованный запрос &lt;br&gt;&lt;/div&gt;&lt;div&gt;о корректности работы подсистемы&lt;/div&gt;&lt;div&gt;физическое устройство&lt;br&gt;&lt;/div&gt;" style="edgeLabel;html=1;align=center;verticalAlign=middle;resizable=0;points=[];" vertex="1" connectable="0" parent="l5EXjZ7SIwJ0zijpVVoK-80">
          <mxGeometry x="0.3115" relative="1" as="geometry">
            <mxPoint x="53" as="offset" />
          </mxGeometry>
        </mxCell>
        <mxCell id="l5EXjZ7SIwJ0zijpVVoK-82" value="" style="endArrow=classic;html=1;rounded=0;edgeStyle=orthogonalEdgeStyle;exitX=0;exitY=0.25;exitDx=0;exitDy=0;entryX=1;entryY=0.25;entryDx=0;entryDy=0;" edge="1" parent="1" source="l5EXjZ7SIwJ0zijpVVoK-67" target="l5EXjZ7SIwJ0zijpVVoK-70">
          <mxGeometry width="50" height="50" relative="1" as="geometry">
            <mxPoint x="1240" y="220" as="sourcePoint" />
            <mxPoint x="1290" y="170" as="targetPoint" />
          </mxGeometry>
        </mxCell>
        <mxCell id="l5EXjZ7SIwJ0zijpVVoK-83" value="&lt;div&gt;Обработанный зашифрованный запрос &lt;br&gt;&lt;/div&gt;&lt;div&gt;о корректности работы подсистемы&lt;/div&gt;&lt;div&gt;физическое устройство&lt;br&gt;&lt;/div&gt;" style="edgeLabel;html=1;align=center;verticalAlign=middle;resizable=0;points=[];" vertex="1" connectable="0" parent="l5EXjZ7SIwJ0zijpVVoK-82">
          <mxGeometry x="0.1441" y="-3" relative="1" as="geometry">
            <mxPoint x="21" as="offset" />
          </mxGeometry>
        </mxCell>
        <mxCell id="l5EXjZ7SIwJ0zijpVVoK-84" value="" style="endArrow=classic;html=1;rounded=0;edgeStyle=orthogonalEdgeStyle;exitX=0;exitY=0.25;exitDx=0;exitDy=0;" edge="1" parent="1">
          <mxGeometry width="50" height="50" relative="1" as="geometry">
            <mxPoint x="1090" y="20" as="sourcePoint" />
            <mxPoint x="810" y="10" as="targetPoint" />
            <Array as="points">
              <mxPoint x="1044" y="20" />
              <mxPoint x="1044" y="10" />
            </Array>
          </mxGeometry>
        </mxCell>
        <mxCell id="l5EXjZ7SIwJ0zijpVVoK-85" value="&lt;div&gt;Данные о корректности&lt;/div&gt;&lt;div&gt; работы подсистемы&lt;/div&gt;&lt;div&gt;физическое устройство&lt;br&gt;&lt;/div&gt;" style="edgeLabel;html=1;align=center;verticalAlign=middle;resizable=0;points=[];" vertex="1" connectable="0" parent="l5EXjZ7SIwJ0zijpVVoK-84">
          <mxGeometry x="-0.1883" y="2" relative="1" as="geometry">
            <mxPoint x="8" as="offset" />
          </mxGeometry>
        </mxCell>
        <mxCell id="l5EXjZ7SIwJ0zijpVVoK-93" value="" style="endArrow=classic;html=1;rounded=0;edgeStyle=orthogonalEdgeStyle;entryX=0;entryY=0.25;entryDx=0;entryDy=0;" edge="1" parent="1" target="l5EXjZ7SIwJ0zijpVVoK-60">
          <mxGeometry width="50" height="50" relative="1" as="geometry">
            <mxPoint x="840" y="-385" as="sourcePoint" />
            <mxPoint x="660" y="-310" as="targetPoint" />
          </mxGeometry>
        </mxCell>
        <mxCell id="l5EXjZ7SIwJ0zijpVVoK-94" value="&lt;div&gt;Запрос на аутентификацию в подсистеме&lt;/div&gt;&lt;div&gt;облачная платформа&lt;br&gt;&lt;/div&gt;" style="edgeLabel;html=1;align=center;verticalAlign=middle;resizable=0;points=[];" vertex="1" connectable="0" parent="l5EXjZ7SIwJ0zijpVVoK-93">
          <mxGeometry x="-0.1973" y="4" relative="1" as="geometry">
            <mxPoint x="23" as="offset" />
          </mxGeometry>
        </mxCell>
        <mxCell id="l5EXjZ7SIwJ0zijpVVoK-95" value="" style="endArrow=classic;html=1;rounded=0;edgeStyle=orthogonalEdgeStyle;entryX=0;entryY=0.25;entryDx=0;entryDy=0;" edge="1" parent="1" target="l5EXjZ7SIwJ0zijpVVoK-75">
          <mxGeometry width="50" height="50" relative="1" as="geometry">
            <mxPoint x="710" y="-162" as="sourcePoint" />
            <mxPoint x="767" y="-180" as="targetPoint" />
            <Array as="points">
              <mxPoint x="827" y="-162" />
            </Array>
          </mxGeometry>
        </mxCell>
        <mxCell id="l5EXjZ7SIwJ0zijpVVoK-96" value="&lt;div&gt;Запрос на управление подсистемой &lt;br&gt;&lt;/div&gt;&lt;div&gt;физическое устройство&lt;br&gt;&lt;/div&gt;" style="edgeLabel;html=1;align=center;verticalAlign=middle;resizable=0;points=[];" vertex="1" connectable="0" parent="l5EXjZ7SIwJ0zijpVVoK-95">
          <mxGeometry x="0.1575" y="-3" relative="1" as="geometry">
            <mxPoint x="8" as="offset" />
          </mxGeometry>
        </mxCell>
        <mxCell id="l5EXjZ7SIwJ0zijpVVoK-97" value="" style="endArrow=classic;html=1;rounded=0;edgeStyle=orthogonalEdgeStyle;exitX=1;exitY=0.75;exitDx=0;exitDy=0;" edge="1" parent="1" source="l5EXjZ7SIwJ0zijpVVoK-61">
          <mxGeometry width="50" height="50" relative="1" as="geometry">
            <mxPoint x="1850" y="-150" as="sourcePoint" />
            <mxPoint x="1840" y="-230" as="targetPoint" />
            <Array as="points">
              <mxPoint x="1520" y="-230" />
              <mxPoint x="1830" y="-230" />
            </Array>
          </mxGeometry>
        </mxCell>
        <mxCell id="l5EXjZ7SIwJ0zijpVVoK-98" value="&lt;div&gt;Зашифрованные пользовательские &lt;br&gt;&lt;/div&gt;&lt;div&gt;данные&lt;br&gt;&lt;/div&gt;" style="edgeLabel;html=1;align=center;verticalAlign=middle;resizable=0;points=[];" vertex="1" connectable="0" parent="l5EXjZ7SIwJ0zijpVVoK-97">
          <mxGeometry x="0.1822" relative="1" as="geometry">
            <mxPoint x="-25" y="-10" as="offset" />
          </mxGeometry>
        </mxCell>
        <mxCell id="l5EXjZ7SIwJ0zijpVVoK-99" value="&lt;div&gt;Данные&lt;/div&gt;&lt;div&gt;о командах в подсистеме &lt;br&gt;&lt;/div&gt;&lt;div&gt;пользовательский интерфейс&lt;br&gt;&lt;/div&gt;" style="html=1;dashed=0;whitespace=wrap;shape=partialRectangle;right=0;" vertex="1" parent="1">
          <mxGeometry x="1025" y="-270" width="216" height="50" as="geometry" />
        </mxCell>
        <mxCell id="l5EXjZ7SIwJ0zijpVVoK-100" value="" style="endArrow=classic;html=1;rounded=0;edgeStyle=orthogonalEdgeStyle;exitX=0.5;exitY=0;exitDx=0;exitDy=0;entryX=0.5;entryY=1;entryDx=0;entryDy=0;" edge="1" parent="1" source="l5EXjZ7SIwJ0zijpVVoK-99" target="l5EXjZ7SIwJ0zijpVVoK-60">
          <mxGeometry width="50" height="50" relative="1" as="geometry">
            <mxPoint x="940" y="-270" as="sourcePoint" />
            <mxPoint x="990" y="-320" as="targetPoint" />
          </mxGeometry>
        </mxCell>
        <mxCell id="l5EXjZ7SIwJ0zijpVVoK-101" value="" style="endArrow=classic;html=1;rounded=0;edgeStyle=orthogonalEdgeStyle;exitX=0.5;exitY=1;exitDx=0;exitDy=0;entryX=0.75;entryY=0;entryDx=0;entryDy=0;" edge="1" parent="1" source="l5EXjZ7SIwJ0zijpVVoK-99" target="l5EXjZ7SIwJ0zijpVVoK-75">
          <mxGeometry width="50" height="50" relative="1" as="geometry">
            <mxPoint x="870" y="-240" as="sourcePoint" />
            <mxPoint x="920" y="-290" as="targetPoint" />
          </mxGeometry>
        </mxCell>
        <mxCell id="l5EXjZ7SIwJ0zijpVVoK-102" value="Расшифровка полученных данных" style="rounded=1;whiteSpace=wrap;html=1;" vertex="1" parent="1">
          <mxGeometry x="1470" y="-30" width="120" height="160" as="geometry" />
        </mxCell>
        <mxCell id="l5EXjZ7SIwJ0zijpVVoK-103" value="" style="endArrow=classic;html=1;rounded=0;edgeStyle=orthogonalEdgeStyle;entryX=1;entryY=0.25;entryDx=0;entryDy=0;" edge="1" parent="1">
          <mxGeometry width="50" height="50" relative="1" as="geometry">
            <mxPoint x="1930.000000000001" y="10" as="sourcePoint" />
            <mxPoint x="1590.000000000001" y="10" as="targetPoint" />
            <Array as="points">
              <mxPoint x="1915" y="10" />
            </Array>
          </mxGeometry>
        </mxCell>
        <mxCell id="l5EXjZ7SIwJ0zijpVVoK-104" value="&lt;div&gt;Зашифрованный запрос &lt;br&gt;&lt;/div&gt;&lt;div&gt;о корректности работы подсистемы&lt;/div&gt;&lt;div&gt;физическое устройство&lt;br&gt;&lt;/div&gt;" style="edgeLabel;html=1;align=center;verticalAlign=middle;resizable=0;points=[];" vertex="1" connectable="0" parent="l5EXjZ7SIwJ0zijpVVoK-103">
          <mxGeometry x="0.3115" relative="1" as="geometry">
            <mxPoint x="53" as="offset" />
          </mxGeometry>
        </mxCell>
        <mxCell id="l5EXjZ7SIwJ0zijpVVoK-105" value="" style="endArrow=classic;html=1;rounded=0;edgeStyle=orthogonalEdgeStyle;" edge="1" parent="1">
          <mxGeometry width="50" height="50" relative="1" as="geometry">
            <mxPoint x="1893.999999999999" y="70" as="sourcePoint" />
            <mxPoint x="1590" y="70" as="targetPoint" />
            <Array as="points">
              <mxPoint x="1894" y="70" />
            </Array>
          </mxGeometry>
        </mxCell>
        <mxCell id="l5EXjZ7SIwJ0zijpVVoK-106" value="&lt;div&gt;Зашифрованный запрос &lt;br&gt;&lt;/div&gt;&lt;div&gt;на авторизацию подсистемы&lt;/div&gt;&lt;div&gt;пользовательский интерфейс &lt;br&gt;&lt;/div&gt;&lt;div&gt;в&lt;/div&gt;&lt;div&gt;подсистеме облачная платформа &lt;br&gt;&lt;/div&gt;" style="edgeLabel;html=1;align=center;verticalAlign=middle;resizable=0;points=[];" vertex="1" connectable="0" parent="l5EXjZ7SIwJ0zijpVVoK-105">
          <mxGeometry x="0.5153" relative="1" as="geometry">
            <mxPoint x="86" y="10" as="offset" />
          </mxGeometry>
        </mxCell>
        <mxCell id="l5EXjZ7SIwJ0zijpVVoK-107" value="&lt;div&gt;Считывание данных от подсистемы облачная платформа и вывод результата в пользовательский интерфейс&lt;br&gt;&lt;/div&gt;" style="rounded=1;whiteSpace=wrap;html=1;" vertex="1" parent="1">
          <mxGeometry x="1086" y="-30" width="170" height="160" as="geometry" />
        </mxCell>
        <mxCell id="l5EXjZ7SIwJ0zijpVVoK-109" value="" style="endArrow=classic;html=1;rounded=0;edgeStyle=orthogonalEdgeStyle;exitX=0;exitY=0.5;exitDx=0;exitDy=0;entryX=0.5;entryY=0;entryDx=0;entryDy=0;" edge="1" parent="1" source="l5EXjZ7SIwJ0zijpVVoK-99" target="l5EXjZ7SIwJ0zijpVVoK-107">
          <mxGeometry width="50" height="50" relative="1" as="geometry">
            <mxPoint x="590" y="-110" as="sourcePoint" />
            <mxPoint x="640" y="-160" as="targetPoint" />
            <Array as="points">
              <mxPoint x="800" y="-245" />
              <mxPoint x="800" y="-60" />
              <mxPoint x="1171" y="-60" />
            </Array>
          </mxGeometry>
        </mxCell>
        <mxCell id="l5EXjZ7SIwJ0zijpVVoK-111" value="" style="endArrow=classic;html=1;rounded=0;edgeStyle=orthogonalEdgeStyle;entryX=1;entryY=0.25;entryDx=0;entryDy=0;exitX=0;exitY=0.25;exitDx=0;exitDy=0;" edge="1" parent="1" source="l5EXjZ7SIwJ0zijpVVoK-102">
          <mxGeometry width="50" height="50" relative="1" as="geometry">
            <mxPoint x="1400" y="40" as="sourcePoint" />
            <mxPoint x="1256.000000000001" y="30" as="targetPoint" />
            <Array as="points">
              <mxPoint x="1470" y="40" />
              <mxPoint x="1390" y="40" />
              <mxPoint x="1390" y="30" />
            </Array>
          </mxGeometry>
        </mxCell>
        <mxCell id="l5EXjZ7SIwJ0zijpVVoK-112" value="&lt;div&gt;Расшифрованные данные &lt;br&gt;&lt;/div&gt;&lt;div&gt;о корректности работы &lt;br&gt;&lt;/div&gt;&lt;div&gt;подсистемы&lt;/div&gt;&lt;div&gt;физическое устройство&lt;br&gt;&lt;/div&gt;" style="edgeLabel;html=1;align=center;verticalAlign=middle;resizable=0;points=[];" vertex="1" connectable="0" parent="l5EXjZ7SIwJ0zijpVVoK-111">
          <mxGeometry x="0.3115" relative="1" as="geometry">
            <mxPoint x="17" y="-10" as="offset" />
          </mxGeometry>
        </mxCell>
        <mxCell id="l5EXjZ7SIwJ0zijpVVoK-113" value="" style="endArrow=classic;html=1;rounded=0;edgeStyle=orthogonalEdgeStyle;entryX=1;entryY=0.25;entryDx=0;entryDy=0;exitX=0;exitY=0.25;exitDx=0;exitDy=0;" edge="1" parent="1">
          <mxGeometry width="50" height="50" relative="1" as="geometry">
            <mxPoint x="1470.000000000001" y="60" as="sourcePoint" />
            <mxPoint x="1256.000000000001" y="80" as="targetPoint" />
            <Array as="points">
              <mxPoint x="1470" y="90" />
              <mxPoint x="1390" y="90" />
              <mxPoint x="1390" y="80" />
            </Array>
          </mxGeometry>
        </mxCell>
        <mxCell id="l5EXjZ7SIwJ0zijpVVoK-114" value="&lt;div&gt;Расшифрованные данные &lt;br&gt;&lt;/div&gt;&lt;div&gt;об авторизации подсистемы&lt;div&gt;пользовательский интерфейс &lt;br&gt;&lt;/div&gt;подсистеме облачная платформ&lt;/div&gt;" style="edgeLabel;html=1;align=center;verticalAlign=middle;resizable=0;points=[];" vertex="1" connectable="0" parent="l5EXjZ7SIwJ0zijpVVoK-113">
          <mxGeometry x="0.3115" relative="1" as="geometry">
            <mxPoint x="17" y="10" as="offset" />
          </mxGeometry>
        </mxCell>
        <mxCell id="l5EXjZ7SIwJ0zijpVVoK-115" value="&lt;div&gt;Считывание зашифрованных данных на авторизацию подсистемы&lt;/div&gt;&lt;div&gt;пользовательский интерфейс&lt;br&gt;&lt;/div&gt;" style="rounded=1;whiteSpace=wrap;html=1;" vertex="1" parent="1">
          <mxGeometry x="2110" y="1406" width="170" height="110" as="geometry" />
        </mxCell>
        <mxCell id="l5EXjZ7SIwJ0zijpVVoK-116" value="" style="endArrow=classic;html=1;rounded=0;edgeStyle=orthogonalEdgeStyle;" edge="1" parent="1">
          <mxGeometry width="50" height="50" relative="1" as="geometry">
            <mxPoint x="1860" y="1446" as="sourcePoint" />
            <mxPoint x="2110" y="1446" as="targetPoint" />
            <Array as="points">
              <mxPoint x="1920" y="1446" />
              <mxPoint x="2110" y="1446" />
            </Array>
          </mxGeometry>
        </mxCell>
        <mxCell id="l5EXjZ7SIwJ0zijpVVoK-117" value="&lt;div&gt;Зашифрованные пользовательские &lt;br&gt;&lt;/div&gt;&lt;div&gt;данные&lt;br&gt;&lt;/div&gt;" style="edgeLabel;html=1;align=center;verticalAlign=middle;resizable=0;points=[];" vertex="1" connectable="0" parent="l5EXjZ7SIwJ0zijpVVoK-116">
          <mxGeometry x="-0.1594" y="-3" relative="1" as="geometry">
            <mxPoint x="19" y="-3" as="offset" />
          </mxGeometry>
        </mxCell>
        <mxCell id="l5EXjZ7SIwJ0zijpVVoK-118" value="&lt;div&gt;Зашифрованные данные о &lt;br&gt;&lt;/div&gt;&lt;div&gt;пользовательских интерфейсах&lt;br&gt;&lt;/div&gt;" style="html=1;dashed=0;whitespace=wrap;shape=partialRectangle;right=0;" vertex="1" parent="1">
          <mxGeometry x="2095" y="1570" width="200" height="75" as="geometry" />
        </mxCell>
        <mxCell id="l5EXjZ7SIwJ0zijpVVoK-119" value="&lt;div&gt;Формирование запроса в зашифрованном виде подсистеме пользовательский интерфейс&lt;/div&gt;" style="rounded=1;whiteSpace=wrap;html=1;" vertex="1" parent="1">
          <mxGeometry x="2450" y="1406" width="185" height="110" as="geometry" />
        </mxCell>
        <mxCell id="l5EXjZ7SIwJ0zijpVVoK-120" value="" style="endArrow=classic;html=1;rounded=0;edgeStyle=orthogonalEdgeStyle;exitX=1;exitY=0.25;exitDx=0;exitDy=0;entryX=0;entryY=0.25;entryDx=0;entryDy=0;" edge="1" parent="1" source="l5EXjZ7SIwJ0zijpVVoK-115" target="l5EXjZ7SIwJ0zijpVVoK-119">
          <mxGeometry width="50" height="50" relative="1" as="geometry">
            <mxPoint x="2535" y="1666" as="sourcePoint" />
            <mxPoint x="2585" y="1616" as="targetPoint" />
          </mxGeometry>
        </mxCell>
        <mxCell id="l5EXjZ7SIwJ0zijpVVoK-121" value="&lt;div&gt;Результат&lt;/div&gt;&lt;div&gt;считанных данных&lt;/div&gt;" style="edgeLabel;html=1;align=center;verticalAlign=middle;resizable=0;points=[];" vertex="1" connectable="0" parent="l5EXjZ7SIwJ0zijpVVoK-120">
          <mxGeometry x="-0.2914" relative="1" as="geometry">
            <mxPoint x="18" as="offset" />
          </mxGeometry>
        </mxCell>
        <mxCell id="l5EXjZ7SIwJ0zijpVVoK-122" value="&lt;div&gt;Зашифрованные данные&lt;/div&gt;&lt;div&gt;о&lt;/div&gt;&lt;div&gt;командах управления подсистемой&lt;/div&gt;&lt;div&gt;физическое устройство&lt;br&gt;&lt;/div&gt;" style="html=1;dashed=0;whitespace=wrap;shape=partialRectangle;right=0;" vertex="1" parent="1">
          <mxGeometry x="2087" y="1906" width="216" height="80" as="geometry" />
        </mxCell>
        <mxCell id="l5EXjZ7SIwJ0zijpVVoK-123" value="" style="endArrow=classic;html=1;rounded=0;edgeStyle=orthogonalEdgeStyle;exitX=0.5;exitY=0;exitDx=0;exitDy=0;entryX=0.5;entryY=1;entryDx=0;entryDy=0;" edge="1" parent="1" source="l5EXjZ7SIwJ0zijpVVoK-118" target="l5EXjZ7SIwJ0zijpVVoK-115">
          <mxGeometry width="50" height="50" relative="1" as="geometry">
            <mxPoint x="2480" y="1716" as="sourcePoint" />
            <mxPoint x="2530" y="1666" as="targetPoint" />
          </mxGeometry>
        </mxCell>
        <mxCell id="l5EXjZ7SIwJ0zijpVVoK-124" value="&lt;div&gt;Проверка авторизации пользовательского интерфейса и считывание данных для управление подсистемой физическое устройство&lt;br&gt;&lt;/div&gt;" style="rounded=1;whiteSpace=wrap;html=1;" vertex="1" parent="1">
          <mxGeometry x="2105" y="1756" width="180" height="125" as="geometry" />
        </mxCell>
        <mxCell id="l5EXjZ7SIwJ0zijpVVoK-125" value="" style="endArrow=classic;startArrow=classic;html=1;rounded=0;edgeStyle=orthogonalEdgeStyle;entryX=0.5;entryY=0;entryDx=0;entryDy=0;" edge="1" parent="1" target="l5EXjZ7SIwJ0zijpVVoK-124">
          <mxGeometry width="50" height="50" relative="1" as="geometry">
            <mxPoint x="3040" y="1431" as="sourcePoint" />
            <mxPoint x="2760" y="1661" as="targetPoint" />
            <Array as="points">
              <mxPoint x="2760" y="1431" />
              <mxPoint x="2760" y="1596" />
              <mxPoint x="2523" y="1596" />
              <mxPoint x="2523" y="1726" />
              <mxPoint x="2195" y="1726" />
            </Array>
          </mxGeometry>
        </mxCell>
        <mxCell id="l5EXjZ7SIwJ0zijpVVoK-126" value="" style="endArrow=none;html=1;rounded=0;edgeStyle=orthogonalEdgeStyle;exitX=1;exitY=0.25;exitDx=0;exitDy=0;" edge="1" parent="1" source="l5EXjZ7SIwJ0zijpVVoK-119">
          <mxGeometry width="50" height="50" relative="1" as="geometry">
            <mxPoint x="2640" y="1436" as="sourcePoint" />
            <mxPoint x="2810" y="1436" as="targetPoint" />
          </mxGeometry>
        </mxCell>
        <mxCell id="l5EXjZ7SIwJ0zijpVVoK-127" value="&lt;div&gt;Зашифрованный запрос &lt;br&gt;&lt;/div&gt;&lt;div&gt;на авторизацию &lt;br&gt;&lt;/div&gt;&lt;div&gt;подсистемы&lt;/div&gt;&lt;div&gt;пользовательский интерфейс &lt;br&gt;&lt;/div&gt;&lt;div&gt;в&lt;/div&gt;&lt;div&gt;подсистеме облачная платформа &lt;br&gt;&lt;/div&gt;" style="edgeLabel;html=1;align=center;verticalAlign=middle;resizable=0;points=[];" vertex="1" connectable="0" parent="l5EXjZ7SIwJ0zijpVVoK-126">
          <mxGeometry x="0.2267" y="1" relative="1" as="geometry">
            <mxPoint x="35" y="11" as="offset" />
          </mxGeometry>
        </mxCell>
        <mxCell id="l5EXjZ7SIwJ0zijpVVoK-128" value="" style="endArrow=classic;html=1;rounded=0;edgeStyle=orthogonalEdgeStyle;entryX=-0.002;entryY=0.573;entryDx=0;entryDy=0;entryPerimeter=0;" edge="1" parent="1" target="l5EXjZ7SIwJ0zijpVVoK-124">
          <mxGeometry width="50" height="50" relative="1" as="geometry">
            <mxPoint x="1880" y="1816" as="sourcePoint" />
            <mxPoint x="2740" y="1906" as="targetPoint" />
            <Array as="points">
              <mxPoint x="1880" y="1828" />
            </Array>
          </mxGeometry>
        </mxCell>
        <mxCell id="l5EXjZ7SIwJ0zijpVVoK-129" value="&lt;div&gt;Зашифрованная пользовательская&lt;/div&gt;&lt;div&gt;команда управления&lt;br&gt;&lt;/div&gt;" style="edgeLabel;html=1;align=center;verticalAlign=middle;resizable=0;points=[];" vertex="1" connectable="0" parent="l5EXjZ7SIwJ0zijpVVoK-128">
          <mxGeometry x="-0.7991" y="2" relative="1" as="geometry">
            <mxPoint x="77" y="-7" as="offset" />
          </mxGeometry>
        </mxCell>
        <mxCell id="l5EXjZ7SIwJ0zijpVVoK-130" value="" style="endArrow=classic;html=1;rounded=0;edgeStyle=orthogonalEdgeStyle;exitX=0.5;exitY=0;exitDx=0;exitDy=0;entryX=0.5;entryY=1;entryDx=0;entryDy=0;" edge="1" parent="1" source="l5EXjZ7SIwJ0zijpVVoK-122" target="l5EXjZ7SIwJ0zijpVVoK-124">
          <mxGeometry width="50" height="50" relative="1" as="geometry">
            <mxPoint x="2655" y="1866" as="sourcePoint" />
            <mxPoint x="2705" y="1816" as="targetPoint" />
          </mxGeometry>
        </mxCell>
        <mxCell id="l5EXjZ7SIwJ0zijpVVoK-132" value="" style="endArrow=classic;html=1;rounded=0;edgeStyle=orthogonalEdgeStyle;exitX=1;exitY=0.25;exitDx=0;exitDy=0;entryX=0;entryY=0.25;entryDx=0;entryDy=0;" edge="1" parent="1" source="l5EXjZ7SIwJ0zijpVVoK-124" target="l5EXjZ7SIwJ0zijpVVoK-134">
          <mxGeometry width="50" height="50" relative="1" as="geometry">
            <mxPoint x="2830" y="1766" as="sourcePoint" />
            <mxPoint x="2440" y="1846" as="targetPoint" />
          </mxGeometry>
        </mxCell>
        <mxCell id="l5EXjZ7SIwJ0zijpVVoK-133" value="&lt;div&gt;Результат проверки&lt;br&gt;&lt;/div&gt;&lt;div&gt;авторизации&lt;br&gt;&lt;/div&gt;" style="edgeLabel;html=1;align=center;verticalAlign=middle;resizable=0;points=[];" vertex="1" connectable="0" parent="l5EXjZ7SIwJ0zijpVVoK-132">
          <mxGeometry x="-0.2477" y="-3" relative="1" as="geometry">
            <mxPoint x="17" y="-4" as="offset" />
          </mxGeometry>
        </mxCell>
        <mxCell id="l5EXjZ7SIwJ0zijpVVoK-134" value="&lt;div&gt;Формирование запроса в зашифрованном виде подсистеме физическое устройство&lt;br&gt;&lt;/div&gt;" style="rounded=1;whiteSpace=wrap;html=1;" vertex="1" parent="1">
          <mxGeometry x="2505" y="1763.5" width="185" height="110" as="geometry" />
        </mxCell>
        <mxCell id="l5EXjZ7SIwJ0zijpVVoK-135" value="" style="endArrow=classic;html=1;rounded=0;edgeStyle=orthogonalEdgeStyle;exitX=0.5;exitY=1;exitDx=0;exitDy=0;" edge="1" parent="1" source="l5EXjZ7SIwJ0zijpVVoK-134">
          <mxGeometry width="50" height="50" relative="1" as="geometry">
            <mxPoint x="2848" y="1756" as="sourcePoint" />
            <mxPoint x="2600" y="2040" as="targetPoint" />
            <Array as="points">
              <mxPoint x="2598" y="1957" />
              <mxPoint x="2600" y="1957" />
            </Array>
          </mxGeometry>
        </mxCell>
        <mxCell id="l5EXjZ7SIwJ0zijpVVoK-136" value="&lt;div&gt;&lt;div&gt;Зашифрованные&lt;/div&gt;&lt;div&gt;данные о выбранных командах &lt;br&gt;&lt;/div&gt;&lt;div&gt;управления&lt;br&gt;&lt;/div&gt;&lt;/div&gt;&lt;div&gt;от подсистемы облачная платформа&lt;br&gt;&lt;/div&gt;" style="edgeLabel;html=1;align=center;verticalAlign=middle;resizable=0;points=[];" vertex="1" connectable="0" parent="l5EXjZ7SIwJ0zijpVVoK-135">
          <mxGeometry x="-0.2579" y="-1" relative="1" as="geometry">
            <mxPoint x="1" y="7" as="offset" />
          </mxGeometry>
        </mxCell>
        <mxCell id="l5EXjZ7SIwJ0zijpVVoK-137" value="&lt;div&gt;Проверка полученных данных и &lt;br&gt;&lt;/div&gt;&lt;div&gt;считывание выполненных команд от подсистемы физическое устройство&lt;br&gt;&lt;/div&gt;" style="rounded=1;whiteSpace=wrap;html=1;" vertex="1" parent="1">
          <mxGeometry x="2800" y="1748.5" width="180" height="125" as="geometry" />
        </mxCell>
        <mxCell id="l5EXjZ7SIwJ0zijpVVoK-138" value="" style="endArrow=classic;html=1;rounded=0;edgeStyle=orthogonalEdgeStyle;entryX=0;entryY=0.5;entryDx=0;entryDy=0;" edge="1" parent="1" target="l5EXjZ7SIwJ0zijpVVoK-137">
          <mxGeometry width="50" height="50" relative="1" as="geometry">
            <mxPoint x="2770" y="2039" as="sourcePoint" />
            <mxPoint x="2810" y="1686" as="targetPoint" />
            <Array as="points">
              <mxPoint x="2770" y="1811" />
            </Array>
          </mxGeometry>
        </mxCell>
        <mxCell id="l5EXjZ7SIwJ0zijpVVoK-139" value="&lt;div&gt;Зашифрованные данные &lt;br&gt;&lt;/div&gt;&lt;div&gt;о выполненных командах подсистемы&lt;br&gt;&lt;/div&gt;&lt;div&gt;физическое устройство&lt;br&gt;&lt;/div&gt;" style="edgeLabel;html=1;align=center;verticalAlign=middle;resizable=0;points=[];" vertex="1" connectable="0" parent="l5EXjZ7SIwJ0zijpVVoK-138">
          <mxGeometry x="-0.1215" y="-2" relative="1" as="geometry">
            <mxPoint x="18" y="60" as="offset" />
          </mxGeometry>
        </mxCell>
        <mxCell id="l5EXjZ7SIwJ0zijpVVoK-140" value="&lt;div&gt;Зашифрованные данные &lt;br&gt;&lt;/div&gt;&lt;div&gt;о результатах выполнения команд&lt;/div&gt;&lt;div&gt;подсистемой физическое устройство&lt;/div&gt;" style="html=1;dashed=0;whitespace=wrap;shape=partialRectangle;right=0;" vertex="1" parent="1">
          <mxGeometry x="3090" y="1856" width="220" height="73" as="geometry" />
        </mxCell>
        <mxCell id="l5EXjZ7SIwJ0zijpVVoK-141" value="&lt;br&gt;&lt;div&gt;Данные о статистике работы &lt;br&gt;&lt;/div&gt;&lt;div&gt;подсистемы&lt;/div&gt;&lt;div&gt;физическое устройство&lt;br&gt;&lt;/div&gt;" style="html=1;dashed=0;whitespace=wrap;shape=partialRectangle;right=0;" vertex="1" parent="1">
          <mxGeometry x="3090" y="1748.5" width="220" height="70" as="geometry" />
        </mxCell>
        <mxCell id="l5EXjZ7SIwJ0zijpVVoK-142" value="" style="endArrow=classic;html=1;rounded=0;edgeStyle=orthogonalEdgeStyle;exitX=0;exitY=0.5;exitDx=0;exitDy=0;entryX=1;entryY=0.75;entryDx=0;entryDy=0;" edge="1" parent="1" source="l5EXjZ7SIwJ0zijpVVoK-140" target="l5EXjZ7SIwJ0zijpVVoK-137">
          <mxGeometry width="50" height="50" relative="1" as="geometry">
            <mxPoint x="3030" y="1996" as="sourcePoint" />
            <mxPoint x="3080" y="1946" as="targetPoint" />
          </mxGeometry>
        </mxCell>
        <mxCell id="l5EXjZ7SIwJ0zijpVVoK-143" value="" style="endArrow=classic;html=1;rounded=0;edgeStyle=orthogonalEdgeStyle;exitX=1;exitY=0.5;exitDx=0;exitDy=0;entryX=0;entryY=0.5;entryDx=0;entryDy=0;" edge="1" parent="1" source="l5EXjZ7SIwJ0zijpVVoK-137" target="l5EXjZ7SIwJ0zijpVVoK-141">
          <mxGeometry width="50" height="50" relative="1" as="geometry">
            <mxPoint x="3120" y="1686" as="sourcePoint" />
            <mxPoint x="3170" y="1636" as="targetPoint" />
          </mxGeometry>
        </mxCell>
        <mxCell id="l5EXjZ7SIwJ0zijpVVoK-144" value="&lt;div&gt;Формирование запроса в зашифрованном виде подсистеме пользовательский интерфейс&lt;/div&gt;" style="rounded=1;whiteSpace=wrap;html=1;" vertex="1" parent="1">
          <mxGeometry x="2797.5" y="1581" width="185" height="110" as="geometry" />
        </mxCell>
        <mxCell id="l5EXjZ7SIwJ0zijpVVoK-145" value="" style="endArrow=classic;html=1;rounded=0;edgeStyle=orthogonalEdgeStyle;exitX=0.5;exitY=0;exitDx=0;exitDy=0;" edge="1" parent="1" source="l5EXjZ7SIwJ0zijpVVoK-137">
          <mxGeometry width="50" height="50" relative="1" as="geometry">
            <mxPoint x="3090" y="1686" as="sourcePoint" />
            <mxPoint x="2840" y="1691" as="targetPoint" />
            <Array as="points">
              <mxPoint x="2840" y="1748" />
              <mxPoint x="2840" y="1691" />
            </Array>
          </mxGeometry>
        </mxCell>
        <mxCell id="l5EXjZ7SIwJ0zijpVVoK-146" value="&lt;div&gt;Результат проверки &lt;br&gt;&lt;/div&gt;&lt;div&gt;полученных данных&lt;br&gt;&lt;/div&gt;" style="edgeLabel;html=1;align=center;verticalAlign=middle;resizable=0;points=[];" vertex="1" connectable="0" parent="l5EXjZ7SIwJ0zijpVVoK-145">
          <mxGeometry x="-0.4542" relative="1" as="geometry">
            <mxPoint x="-31" y="-28" as="offset" />
          </mxGeometry>
        </mxCell>
        <mxCell id="l5EXjZ7SIwJ0zijpVVoK-147" value="" style="endArrow=classic;html=1;rounded=0;edgeStyle=orthogonalEdgeStyle;exitX=0.5;exitY=0;exitDx=0;exitDy=0;" edge="1" parent="1" source="l5EXjZ7SIwJ0zijpVVoK-144">
          <mxGeometry width="50" height="50" relative="1" as="geometry">
            <mxPoint x="3130" y="1616" as="sourcePoint" />
            <mxPoint x="3040" y="1506" as="targetPoint" />
            <Array as="points">
              <mxPoint x="2890" y="1506" />
            </Array>
          </mxGeometry>
        </mxCell>
        <mxCell id="l5EXjZ7SIwJ0zijpVVoK-148" value="&lt;div&gt;Зашифрованные данные &lt;br&gt;&lt;/div&gt;&lt;div&gt;о корректности работы подсистемы&lt;br&gt;&lt;/div&gt;&lt;div&gt;физическое устройство&lt;br&gt;&lt;/div&gt;" style="edgeLabel;html=1;align=center;verticalAlign=middle;resizable=0;points=[];" vertex="1" connectable="0" parent="l5EXjZ7SIwJ0zijpVVoK-147">
          <mxGeometry x="-0.5504" y="2" relative="1" as="geometry">
            <mxPoint x="22" y="-10" as="offset" />
          </mxGeometry>
        </mxCell>
        <mxCell id="l5EXjZ7SIwJ0zijpVVoK-150" value="" style="endArrow=classic;html=1;rounded=0;edgeStyle=orthogonalEdgeStyle;exitX=1;exitY=0.25;exitDx=0;exitDy=0;entryX=0.01;entryY=0.592;entryDx=0;entryDy=0;entryPerimeter=0;" edge="1" parent="1" target="l5EXjZ7SIwJ0zijpVVoK-134">
          <mxGeometry width="50" height="50" relative="1" as="geometry">
            <mxPoint x="2285" y="1824.75" as="sourcePoint" />
            <mxPoint x="2505" y="1819" as="targetPoint" />
          </mxGeometry>
        </mxCell>
        <mxCell id="l5EXjZ7SIwJ0zijpVVoK-151" value="&lt;div&gt;Зашифрованные&lt;/div&gt;&lt;div&gt;данные о выбранных командах &lt;br&gt;&lt;/div&gt;&lt;div&gt;управления&lt;br&gt;&lt;/div&gt;" style="edgeLabel;html=1;align=center;verticalAlign=middle;resizable=0;points=[];" vertex="1" connectable="0" parent="l5EXjZ7SIwJ0zijpVVoK-150">
          <mxGeometry x="-0.2477" y="-3" relative="1" as="geometry">
            <mxPoint x="17" y="5" as="offset" />
          </mxGeometry>
        </mxCell>
        <mxCell id="l5EXjZ7SIwJ0zijpVVoK-152" value="" style="endArrow=classic;html=1;rounded=0;edgeStyle=orthogonalEdgeStyle;" edge="1" parent="1">
          <mxGeometry width="50" height="50" relative="1" as="geometry">
            <mxPoint x="2950" y="1749" as="sourcePoint" />
            <mxPoint x="2950.000000000001" y="1691" as="targetPoint" />
            <Array as="points">
              <mxPoint x="2950" y="1748" />
              <mxPoint x="2950" y="1691" />
            </Array>
          </mxGeometry>
        </mxCell>
        <mxCell id="l5EXjZ7SIwJ0zijpVVoK-153" value="&lt;div&gt;Зашифрованные данные&lt;/div&gt;&lt;div&gt;о выполненных командах&lt;br&gt;&lt;/div&gt;" style="edgeLabel;html=1;align=center;verticalAlign=middle;resizable=0;points=[];" vertex="1" connectable="0" parent="l5EXjZ7SIwJ0zijpVVoK-152">
          <mxGeometry x="-0.4542" relative="1" as="geometry">
            <mxPoint x="20" y="-13" as="offset" />
          </mxGeometry>
        </mxCell>
        <mxCell id="l5EXjZ7SIwJ0zijpVVoK-157" value="" style="endArrow=classic;html=1;rounded=0;edgeStyle=orthogonalEdgeStyle;exitX=1;exitY=0.25;exitDx=0;exitDy=0;" edge="1" parent="1">
          <mxGeometry width="50" height="50" relative="1" as="geometry">
            <mxPoint x="99.99999999999994" y="2691" as="sourcePoint" />
            <mxPoint x="335.71000000000004" y="2690" as="targetPoint" />
            <Array as="points">
              <mxPoint x="212.70999999999998" y="2691" />
              <mxPoint x="335.71000000000004" y="2690" />
              <mxPoint x="335.71000000000004" y="2700" />
            </Array>
          </mxGeometry>
        </mxCell>
        <mxCell id="l5EXjZ7SIwJ0zijpVVoK-158" value="&lt;div&gt;Зашифрованные данные&lt;/div&gt;&lt;div&gt;об активации необходимых &lt;br&gt;&lt;/div&gt;&lt;div&gt;контроллеров&lt;br&gt;&lt;/div&gt;" style="edgeLabel;html=1;align=center;verticalAlign=middle;resizable=0;points=[];" vertex="1" connectable="0" parent="l5EXjZ7SIwJ0zijpVVoK-157">
          <mxGeometry x="-0.1754" y="2" relative="1" as="geometry">
            <mxPoint x="23" y="1" as="offset" />
          </mxGeometry>
        </mxCell>
        <mxCell id="l5EXjZ7SIwJ0zijpVVoK-161" value="Проверка какие контроллеры необходимо активировать" style="rounded=1;whiteSpace=wrap;html=1;" vertex="1" parent="1">
          <mxGeometry x="310" y="2620" width="160" height="170" as="geometry" />
        </mxCell>
        <mxCell id="l5EXjZ7SIwJ0zijpVVoK-162" value="Активация контроллера для активации устройства" style="rounded=1;whiteSpace=wrap;html=1;" vertex="1" parent="1">
          <mxGeometry x="600" y="2550" width="120" height="70" as="geometry" />
        </mxCell>
        <mxCell id="l5EXjZ7SIwJ0zijpVVoK-163" value="Активация контроллера для изменения температуры физического устройства" style="rounded=1;whiteSpace=wrap;html=1;" vertex="1" parent="1">
          <mxGeometry x="600" y="2660" width="120" height="90" as="geometry" />
        </mxCell>
        <mxCell id="l5EXjZ7SIwJ0zijpVVoK-164" value="&lt;div&gt;Активация резистора для измерения потребляемой&lt;/div&gt;&lt;div&gt;электроэнергии&lt;br&gt;&lt;/div&gt;" style="rounded=1;whiteSpace=wrap;html=1;" vertex="1" parent="1">
          <mxGeometry x="534" y="2820" width="120" height="60" as="geometry" />
        </mxCell>
        <mxCell id="l5EXjZ7SIwJ0zijpVVoK-165" value="Контроллер активации физического устройства" style="rounded=0;whiteSpace=wrap;html=1;" vertex="1" parent="1">
          <mxGeometry x="844.29" y="2490" width="120" height="60" as="geometry" />
        </mxCell>
        <mxCell id="l5EXjZ7SIwJ0zijpVVoK-166" value="Контроллер&amp;nbsp; температуры физического устройства" style="rounded=0;whiteSpace=wrap;html=1;" vertex="1" parent="1">
          <mxGeometry x="827" y="2670" width="120" height="90" as="geometry" />
        </mxCell>
        <mxCell id="l5EXjZ7SIwJ0zijpVVoK-167" value="&lt;span&gt;Токоизмерительный резистор&lt;/span&gt;" style="rounded=0;whiteSpace=wrap;html=1;" vertex="1" parent="1">
          <mxGeometry x="810" y="2820" width="120" height="60" as="geometry" />
        </mxCell>
        <mxCell id="l5EXjZ7SIwJ0zijpVVoK-168" value="Активация контроллера для деактивации устройства" style="rounded=1;whiteSpace=wrap;html=1;" vertex="1" parent="1">
          <mxGeometry x="600" y="2930" width="120" height="60" as="geometry" />
        </mxCell>
        <mxCell id="l5EXjZ7SIwJ0zijpVVoK-169" value="Контроллер деактивации физического устройства" style="rounded=0;whiteSpace=wrap;html=1;" vertex="1" parent="1">
          <mxGeometry x="837.5" y="2930" width="120" height="60" as="geometry" />
        </mxCell>
        <mxCell id="l5EXjZ7SIwJ0zijpVVoK-170" value="" style="endArrow=classic;html=1;rounded=0;edgeStyle=orthogonalEdgeStyle;exitX=0.998;exitY=0.165;exitDx=0;exitDy=0;exitPerimeter=0;" edge="1" parent="1" source="l5EXjZ7SIwJ0zijpVVoK-161">
          <mxGeometry width="50" height="50" relative="1" as="geometry">
            <mxPoint x="460" y="2830" as="sourcePoint" />
            <mxPoint x="600" y="2595" as="targetPoint" />
            <Array as="points">
              <mxPoint x="535" y="2648" />
              <mxPoint x="535" y="2595" />
            </Array>
          </mxGeometry>
        </mxCell>
        <mxCell id="l5EXjZ7SIwJ0zijpVVoK-174" value="&lt;div&gt;Команда о включении &lt;br&gt;&lt;/div&gt;&lt;div&gt;физического&lt;/div&gt;&lt;div&gt;устройства&lt;br&gt;&lt;/div&gt;" style="edgeLabel;html=1;align=center;verticalAlign=middle;resizable=0;points=[];" vertex="1" connectable="0" parent="l5EXjZ7SIwJ0zijpVVoK-170">
          <mxGeometry x="-0.1772" y="-2" relative="1" as="geometry">
            <mxPoint x="-17" y="-48" as="offset" />
          </mxGeometry>
        </mxCell>
        <mxCell id="l5EXjZ7SIwJ0zijpVVoK-171" value="" style="endArrow=classic;html=1;rounded=0;edgeStyle=orthogonalEdgeStyle;exitX=0.998;exitY=0.361;exitDx=0;exitDy=0;entryX=0;entryY=0.5;entryDx=0;entryDy=0;exitPerimeter=0;" edge="1" parent="1" source="l5EXjZ7SIwJ0zijpVVoK-161" target="l5EXjZ7SIwJ0zijpVVoK-163">
          <mxGeometry width="50" height="50" relative="1" as="geometry">
            <mxPoint x="490" y="2860" as="sourcePoint" />
            <mxPoint x="540" y="2810" as="targetPoint" />
          </mxGeometry>
        </mxCell>
        <mxCell id="l5EXjZ7SIwJ0zijpVVoK-185" value="&lt;div&gt;Команда &lt;br&gt;&lt;/div&gt;&lt;div&gt;на изменение&lt;/div&gt;&lt;div&gt;температуры&lt;br&gt;&lt;/div&gt;" style="edgeLabel;html=1;align=center;verticalAlign=middle;resizable=0;points=[];" vertex="1" connectable="0" parent="l5EXjZ7SIwJ0zijpVVoK-171">
          <mxGeometry x="-0.2942" y="2" relative="1" as="geometry">
            <mxPoint as="offset" />
          </mxGeometry>
        </mxCell>
        <mxCell id="l5EXjZ7SIwJ0zijpVVoK-172" value="" style="endArrow=classic;html=1;rounded=0;edgeStyle=orthogonalEdgeStyle;entryX=0.5;entryY=0;entryDx=0;entryDy=0;" edge="1" parent="1" source="l5EXjZ7SIwJ0zijpVVoK-165" target="l5EXjZ7SIwJ0zijpVVoK-164">
          <mxGeometry width="50" height="50" relative="1" as="geometry">
            <mxPoint x="430" y="2890" as="sourcePoint" />
            <mxPoint x="480" y="2840" as="targetPoint" />
            <Array as="points">
              <mxPoint x="810" y="2790" />
              <mxPoint x="594" y="2790" />
            </Array>
          </mxGeometry>
        </mxCell>
        <mxCell id="l5EXjZ7SIwJ0zijpVVoK-191" value="&lt;div&gt;Команда о начале потребления&lt;/div&gt;&lt;div&gt;электроэнегии&lt;br&gt;&lt;/div&gt;" style="edgeLabel;html=1;align=center;verticalAlign=middle;resizable=0;points=[];" vertex="1" connectable="0" parent="l5EXjZ7SIwJ0zijpVVoK-172">
          <mxGeometry x="0.3241" y="-1" relative="1" as="geometry">
            <mxPoint as="offset" />
          </mxGeometry>
        </mxCell>
        <mxCell id="l5EXjZ7SIwJ0zijpVVoK-173" value="" style="endArrow=classic;html=1;rounded=0;edgeStyle=orthogonalEdgeStyle;exitX=0.75;exitY=1;exitDx=0;exitDy=0;entryX=0;entryY=0.5;entryDx=0;entryDy=0;" edge="1" parent="1" source="l5EXjZ7SIwJ0zijpVVoK-161" target="l5EXjZ7SIwJ0zijpVVoK-168">
          <mxGeometry width="50" height="50" relative="1" as="geometry">
            <mxPoint x="450" y="3010" as="sourcePoint" />
            <mxPoint x="500" y="2960" as="targetPoint" />
          </mxGeometry>
        </mxCell>
        <mxCell id="l5EXjZ7SIwJ0zijpVVoK-199" value="&lt;div&gt;Команда о выключении &lt;br&gt;&lt;/div&gt;&lt;div&gt;физического&lt;/div&gt;&lt;div&gt;устройства&lt;br&gt;&lt;/div&gt;" style="edgeLabel;html=1;align=center;verticalAlign=middle;resizable=0;points=[];" vertex="1" connectable="0" parent="l5EXjZ7SIwJ0zijpVVoK-173">
          <mxGeometry x="-0.3588" y="-4" relative="1" as="geometry">
            <mxPoint x="19" y="31" as="offset" />
          </mxGeometry>
        </mxCell>
        <mxCell id="l5EXjZ7SIwJ0zijpVVoK-175" value="" style="endArrow=classic;html=1;rounded=0;edgeStyle=orthogonalEdgeStyle;exitX=1;exitY=0.5;exitDx=0;exitDy=0;entryX=0;entryY=0.25;entryDx=0;entryDy=0;" edge="1" parent="1" source="l5EXjZ7SIwJ0zijpVVoK-162" target="l5EXjZ7SIwJ0zijpVVoK-165">
          <mxGeometry width="50" height="50" relative="1" as="geometry">
            <mxPoint x="760" y="2630" as="sourcePoint" />
            <mxPoint x="780" y="2540" as="targetPoint" />
            <Array as="points">
              <mxPoint x="720" y="2610" />
              <mxPoint x="780" y="2610" />
              <mxPoint x="780" y="2505" />
            </Array>
          </mxGeometry>
        </mxCell>
        <mxCell id="l5EXjZ7SIwJ0zijpVVoK-177" value="&lt;div&gt;Данные &lt;br&gt;&lt;/div&gt;&lt;div&gt;о включении&lt;/div&gt;" style="edgeLabel;html=1;align=center;verticalAlign=middle;resizable=0;points=[];" vertex="1" connectable="0" parent="l5EXjZ7SIwJ0zijpVVoK-175">
          <mxGeometry x="0.2103" relative="1" as="geometry">
            <mxPoint x="-10" y="-22" as="offset" />
          </mxGeometry>
        </mxCell>
        <mxCell id="l5EXjZ7SIwJ0zijpVVoK-178" value="Проверка работы контроллеров" style="rounded=1;whiteSpace=wrap;html=1;" vertex="1" parent="1">
          <mxGeometry x="1100" y="2615" width="186" height="180" as="geometry" />
        </mxCell>
        <mxCell id="l5EXjZ7SIwJ0zijpVVoK-179" value="" style="endArrow=classic;html=1;rounded=0;edgeStyle=orthogonalEdgeStyle;exitX=1;exitY=0.5;exitDx=0;exitDy=0;entryX=0.011;entryY=0.206;entryDx=0;entryDy=0;entryPerimeter=0;" edge="1" parent="1">
          <mxGeometry width="50" height="50" relative="1" as="geometry">
            <mxPoint x="964.29" y="2527.9" as="sourcePoint" />
            <mxPoint x="1102.0460000000003" y="2659.98" as="targetPoint" />
            <Array as="points">
              <mxPoint x="964" y="2517.9" />
              <mxPoint x="1030" y="2517.9" />
              <mxPoint x="1030" y="2657.9" />
              <mxPoint x="1077" y="2657.9" />
              <mxPoint x="1077" y="2659.9" />
            </Array>
          </mxGeometry>
        </mxCell>
        <mxCell id="l5EXjZ7SIwJ0zijpVVoK-180" value="&lt;div&gt;Данные &lt;br&gt;&lt;/div&gt;&lt;div&gt;о рабочем состоянии&lt;/div&gt;" style="edgeLabel;html=1;align=center;verticalAlign=middle;resizable=0;points=[];" vertex="1" connectable="0" parent="l5EXjZ7SIwJ0zijpVVoK-179">
          <mxGeometry x="-0.1047" y="-4" relative="1" as="geometry">
            <mxPoint x="14" y="18" as="offset" />
          </mxGeometry>
        </mxCell>
        <mxCell id="l5EXjZ7SIwJ0zijpVVoK-181" value="" style="endArrow=classic;html=1;rounded=0;edgeStyle=orthogonalEdgeStyle;exitX=1;exitY=0.25;exitDx=0;exitDy=0;entryX=0;entryY=0.25;entryDx=0;entryDy=0;" edge="1" parent="1" source="l5EXjZ7SIwJ0zijpVVoK-163" target="l5EXjZ7SIwJ0zijpVVoK-166">
          <mxGeometry width="50" height="50" relative="1" as="geometry">
            <mxPoint x="730" y="2820" as="sourcePoint" />
            <mxPoint x="780" y="2770" as="targetPoint" />
            <Array as="points">
              <mxPoint x="750" y="2683" />
              <mxPoint x="750" y="2693" />
            </Array>
          </mxGeometry>
        </mxCell>
        <mxCell id="l5EXjZ7SIwJ0zijpVVoK-182" value="&lt;div&gt;Данные о&lt;/div&gt;&lt;div&gt;необходимой &lt;br&gt;&lt;/div&gt;&lt;div&gt;температуре&lt;br&gt;&lt;/div&gt;" style="edgeLabel;html=1;align=center;verticalAlign=middle;resizable=0;points=[];" vertex="1" connectable="0" parent="l5EXjZ7SIwJ0zijpVVoK-181">
          <mxGeometry x="0.04" y="-1" relative="1" as="geometry">
            <mxPoint x="-11" y="-3" as="offset" />
          </mxGeometry>
        </mxCell>
        <mxCell id="l5EXjZ7SIwJ0zijpVVoK-183" value="" style="endArrow=classic;html=1;rounded=0;edgeStyle=orthogonalEdgeStyle;exitX=1;exitY=0.25;exitDx=0;exitDy=0;entryX=0.005;entryY=0.456;entryDx=0;entryDy=0;entryPerimeter=0;" edge="1" parent="1" source="l5EXjZ7SIwJ0zijpVVoK-166" target="l5EXjZ7SIwJ0zijpVVoK-178">
          <mxGeometry width="50" height="50" relative="1" as="geometry">
            <mxPoint x="1030" y="2870" as="sourcePoint" />
            <mxPoint x="1080" y="2693" as="targetPoint" />
          </mxGeometry>
        </mxCell>
        <mxCell id="l5EXjZ7SIwJ0zijpVVoK-184" value="&lt;div&gt;Данные о изменении &lt;br&gt;&lt;/div&gt;&lt;div&gt;температуры&lt;br&gt;&lt;/div&gt;" style="edgeLabel;html=1;align=center;verticalAlign=middle;resizable=0;points=[];" vertex="1" connectable="0" parent="l5EXjZ7SIwJ0zijpVVoK-183">
          <mxGeometry x="0.161" relative="1" as="geometry">
            <mxPoint x="1" as="offset" />
          </mxGeometry>
        </mxCell>
        <mxCell id="l5EXjZ7SIwJ0zijpVVoK-186" value="" style="endArrow=classic;html=1;rounded=0;edgeStyle=orthogonalEdgeStyle;exitX=1;exitY=0.5;exitDx=0;exitDy=0;entryX=0;entryY=0.5;entryDx=0;entryDy=0;" edge="1" parent="1" source="l5EXjZ7SIwJ0zijpVVoK-164" target="l5EXjZ7SIwJ0zijpVVoK-167">
          <mxGeometry width="50" height="50" relative="1" as="geometry">
            <mxPoint x="730" y="2810" as="sourcePoint" />
            <mxPoint x="780" y="2760" as="targetPoint" />
          </mxGeometry>
        </mxCell>
        <mxCell id="l5EXjZ7SIwJ0zijpVVoK-194" value="&lt;div&gt;Данные о&lt;/div&gt;&lt;div&gt;начале измерения&lt;/div&gt;&lt;div&gt;электроэнергии&lt;br&gt;&lt;/div&gt;" style="edgeLabel;html=1;align=center;verticalAlign=middle;resizable=0;points=[];" vertex="1" connectable="0" parent="l5EXjZ7SIwJ0zijpVVoK-186">
          <mxGeometry x="-0.2444" y="-3" relative="1" as="geometry">
            <mxPoint as="offset" />
          </mxGeometry>
        </mxCell>
        <mxCell id="l5EXjZ7SIwJ0zijpVVoK-187" value="" style="endArrow=classic;html=1;rounded=0;edgeStyle=orthogonalEdgeStyle;exitX=1;exitY=0.5;exitDx=0;exitDy=0;entryX=0;entryY=0.5;entryDx=0;entryDy=0;" edge="1" parent="1" source="l5EXjZ7SIwJ0zijpVVoK-168" target="l5EXjZ7SIwJ0zijpVVoK-169">
          <mxGeometry width="50" height="50" relative="1" as="geometry">
            <mxPoint x="970" y="2895" as="sourcePoint" />
            <mxPoint x="1030" y="2850" as="targetPoint" />
            <Array as="points">
              <mxPoint x="760" y="2960" />
              <mxPoint x="760" y="2960" />
            </Array>
          </mxGeometry>
        </mxCell>
        <mxCell id="l5EXjZ7SIwJ0zijpVVoK-188" value="&lt;div&gt;Данные об &lt;br&gt;&lt;/div&gt;&lt;div&gt;отключении&lt;/div&gt;" style="edgeLabel;html=1;align=center;verticalAlign=middle;resizable=0;points=[];" vertex="1" connectable="0" parent="l5EXjZ7SIwJ0zijpVVoK-187">
          <mxGeometry x="0.2103" relative="1" as="geometry">
            <mxPoint x="-11" as="offset" />
          </mxGeometry>
        </mxCell>
        <mxCell id="l5EXjZ7SIwJ0zijpVVoK-189" value="" style="endArrow=classic;html=1;rounded=0;edgeStyle=orthogonalEdgeStyle;exitX=1;exitY=0.5;exitDx=0;exitDy=0;entryX=1;entryY=0.75;entryDx=0;entryDy=0;" edge="1" parent="1" source="l5EXjZ7SIwJ0zijpVVoK-169" target="l5EXjZ7SIwJ0zijpVVoK-166">
          <mxGeometry width="50" height="50" relative="1" as="geometry">
            <mxPoint x="1060" y="2960" as="sourcePoint" />
            <mxPoint x="1110" y="2910" as="targetPoint" />
            <Array as="points">
              <mxPoint x="1030" y="2960" />
              <mxPoint x="1030" y="2738" />
            </Array>
          </mxGeometry>
        </mxCell>
        <mxCell id="l5EXjZ7SIwJ0zijpVVoK-190" value="&lt;div&gt;Данные о &lt;br&gt;&lt;/div&gt;&lt;div&gt;выключении физического&lt;/div&gt;&lt;div&gt;устройства&lt;br&gt; &lt;/div&gt;" style="edgeLabel;html=1;align=center;verticalAlign=middle;resizable=0;points=[];" vertex="1" connectable="0" parent="l5EXjZ7SIwJ0zijpVVoK-189">
          <mxGeometry x="-0.1746" y="-4" relative="1" as="geometry">
            <mxPoint x="6" y="84" as="offset" />
          </mxGeometry>
        </mxCell>
        <mxCell id="l5EXjZ7SIwJ0zijpVVoK-192" value="" style="endArrow=classic;html=1;rounded=0;edgeStyle=orthogonalEdgeStyle;exitX=1;exitY=0.5;exitDx=0;exitDy=0;" edge="1" parent="1" source="l5EXjZ7SIwJ0zijpVVoK-167">
          <mxGeometry width="50" height="50" relative="1" as="geometry">
            <mxPoint x="1160" y="2880" as="sourcePoint" />
            <mxPoint x="1100" y="2770" as="targetPoint" />
            <Array as="points">
              <mxPoint x="980" y="2850" />
              <mxPoint x="980" y="2770" />
            </Array>
          </mxGeometry>
        </mxCell>
        <mxCell id="l5EXjZ7SIwJ0zijpVVoK-198" value="&lt;div&gt;Данные о &lt;br&gt;&lt;/div&gt;&lt;div&gt;потребляемой&lt;/div&gt;&lt;div&gt;электроэнергии&lt;br&gt;&lt;/div&gt;" style="edgeLabel;html=1;align=center;verticalAlign=middle;resizable=0;points=[];" vertex="1" connectable="0" parent="l5EXjZ7SIwJ0zijpVVoK-192">
          <mxGeometry x="-0.272" y="4" relative="1" as="geometry">
            <mxPoint as="offset" />
          </mxGeometry>
        </mxCell>
        <mxCell id="l5EXjZ7SIwJ0zijpVVoK-193" value="" style="endArrow=classic;html=1;rounded=0;edgeStyle=orthogonalEdgeStyle;entryX=0.5;entryY=1;entryDx=0;entryDy=0;" edge="1" parent="1" target="l5EXjZ7SIwJ0zijpVVoK-178">
          <mxGeometry width="50" height="50" relative="1" as="geometry">
            <mxPoint x="1030" y="2930" as="sourcePoint" />
            <mxPoint x="1230" y="2830" as="targetPoint" />
          </mxGeometry>
        </mxCell>
        <mxCell id="l5EXjZ7SIwJ0zijpVVoK-195" value="" style="endArrow=classic;html=1;rounded=0;edgeStyle=orthogonalEdgeStyle;entryX=0.444;entryY=1.044;entryDx=0;entryDy=0;entryPerimeter=0;exitX=0.75;exitY=0;exitDx=0;exitDy=0;" edge="1" parent="1" source="uNSG5E5gWwTWy8iNkXtj-134" target="uNSG5E5gWwTWy8iNkXtj-131">
          <mxGeometry width="50" height="50" relative="1" as="geometry">
            <mxPoint x="710" y="2360" as="sourcePoint" />
            <mxPoint x="850" y="2370" as="targetPoint" />
            <Array as="points">
              <mxPoint x="533" y="2360" />
              <mxPoint x="840" y="2360" />
            </Array>
          </mxGeometry>
        </mxCell>
        <mxCell id="l5EXjZ7SIwJ0zijpVVoK-196" value="" style="endArrow=classic;html=1;rounded=0;edgeStyle=orthogonalEdgeStyle;exitX=0.5;exitY=0;exitDx=0;exitDy=0;entryX=0.25;entryY=1;entryDx=0;entryDy=0;" edge="1" parent="1" source="l5EXjZ7SIwJ0zijpVVoK-197" target="l5EXjZ7SIwJ0zijpVVoK-161">
          <mxGeometry width="50" height="50" relative="1" as="geometry">
            <mxPoint x="370" y="2905.25" as="sourcePoint" />
            <mxPoint x="240" y="2804.75" as="targetPoint" />
            <Array as="points">
              <mxPoint x="255" y="2855" />
              <mxPoint x="240" y="2855" />
              <mxPoint x="240" y="2865" />
              <mxPoint x="245" y="2865" />
              <mxPoint x="245" y="2855" />
              <mxPoint x="350" y="2855" />
            </Array>
          </mxGeometry>
        </mxCell>
        <mxCell id="l5EXjZ7SIwJ0zijpVVoK-197" value="&lt;div&gt;Зашифрованные данные&lt;/div&gt;&lt;div&gt;об активации необходимых контроллеров&lt;br&gt;&lt;/div&gt;&amp;nbsp;для выполнения команд" style="html=1;dashed=0;whitespace=wrap;shape=partialRectangle;right=0;" vertex="1" parent="1">
          <mxGeometry x="140" y="2845.25" width="230" height="50" as="geometry" />
        </mxCell>
        <mxCell id="l5EXjZ7SIwJ0zijpVVoK-200" value="" style="endArrow=classic;html=1;rounded=0;edgeStyle=orthogonalEdgeStyle;entryX=0.75;entryY=1;entryDx=0;entryDy=0;" edge="1" parent="1" target="l5EXjZ7SIwJ0zijpVVoK-165">
          <mxGeometry width="50" height="50" relative="1" as="geometry">
            <mxPoint x="1030" y="2740" as="sourcePoint" />
            <mxPoint x="1230" y="2490" as="targetPoint" />
            <Array as="points">
              <mxPoint x="1030" y="2730" />
              <mxPoint x="970" y="2730" />
              <mxPoint x="970" y="2570" />
              <mxPoint x="934" y="2570" />
            </Array>
          </mxGeometry>
        </mxCell>
        <mxCell id="l5EXjZ7SIwJ0zijpVVoK-203" value="" style="endArrow=classic;html=1;rounded=0;edgeStyle=orthogonalEdgeStyle;" edge="1" parent="1">
          <mxGeometry width="50" height="50" relative="1" as="geometry">
            <mxPoint x="1286" y="2670" as="sourcePoint" />
            <mxPoint x="1510" y="2600" as="targetPoint" />
          </mxGeometry>
        </mxCell>
        <mxCell id="l5EXjZ7SIwJ0zijpVVoK-204" value="&lt;div&gt;Результат &lt;br&gt;&lt;/div&gt;&lt;div&gt;проверки&lt;br&gt;&lt;/div&gt;&amp;nbsp;работы контроллеров" style="edgeLabel;html=1;align=center;verticalAlign=middle;resizable=0;points=[];" vertex="1" connectable="0" parent="l5EXjZ7SIwJ0zijpVVoK-203">
          <mxGeometry x="-0.204" y="1" relative="1" as="geometry">
            <mxPoint as="offset" />
          </mxGeometry>
        </mxCell>
        <mxCell id="l5EXjZ7SIwJ0zijpVVoK-205" value="" style="endArrow=classic;html=1;rounded=0;edgeStyle=orthogonalEdgeStyle;exitX=1;exitY=0.25;exitDx=0;exitDy=0;" edge="1" parent="1">
          <mxGeometry width="50" height="50" relative="1" as="geometry">
            <mxPoint x="1286" y="2743.25" as="sourcePoint" />
            <mxPoint x="1540" y="2700" as="targetPoint" />
            <Array as="points">
              <mxPoint x="1540" y="2743" />
              <mxPoint x="1540" y="2720" />
            </Array>
          </mxGeometry>
        </mxCell>
        <mxCell id="l5EXjZ7SIwJ0zijpVVoK-206" value="&lt;div&gt;Результат &lt;br&gt;&lt;/div&gt;&lt;div&gt;активации&lt;br&gt;&lt;/div&gt;&lt;div&gt;необходимых контроллеров&lt;br&gt;&lt;/div&gt;" style="edgeLabel;html=1;align=center;verticalAlign=middle;resizable=0;points=[];" vertex="1" connectable="0" parent="l5EXjZ7SIwJ0zijpVVoK-205">
          <mxGeometry x="-0.3094" y="-1" relative="1" as="geometry">
            <mxPoint x="16" y="-8" as="offset" />
          </mxGeometry>
        </mxCell>
        <mxCell id="l5EXjZ7SIwJ0zijpVVoK-207" value="" style="endArrow=classic;html=1;rounded=0;edgeStyle=orthogonalEdgeStyle;" edge="1" parent="1">
          <mxGeometry width="50" height="50" relative="1" as="geometry">
            <mxPoint x="940" y="2310" as="sourcePoint" />
            <mxPoint x="1160" y="2310" as="targetPoint" />
          </mxGeometry>
        </mxCell>
        <mxCell id="l5EXjZ7SIwJ0zijpVVoK-208" value="&lt;div&gt;Результат &lt;br&gt;&lt;/div&gt;&lt;div&gt;проверки&lt;br&gt;&lt;/div&gt;&amp;nbsp;работы контроллеров" style="edgeLabel;html=1;align=center;verticalAlign=middle;resizable=0;points=[];" vertex="1" connectable="0" parent="l5EXjZ7SIwJ0zijpVVoK-207">
          <mxGeometry x="-0.204" y="1" relative="1" as="geometry">
            <mxPoint x="13" y="11" as="offset" />
          </mxGeometry>
        </mxCell>
      </root>
    </mxGraphModel>
  </diagram>
</mxfile>
